<svg xmlns="http://www.w3.org/2000/svg" width="14" height="14" viewBox="0 0 14 14" fill="none">
  <path d="M7.00428 13.125C7.46495 13.121 7.90539 12.9479 8.23016 12.6432L11.9954 9.13991C12.1585 8.9869 12.25 8.77993 12.25 8.56419C12.25 8.34845 12.1585 8.14148 11.9954 7.98847C11.914 7.91193 11.8171 7.85118 11.7104 7.80972C11.6037 7.76826 11.4893 7.74692 11.3737 7.74692C11.2581 7.74692 11.1436 7.76826 11.0369 7.80972C10.9302 7.85118 10.8334 7.91193 10.752 7.98847L7.87991 10.6751L7.87991 1.69162C7.87991 1.47504 7.78765 1.26733 7.62344 1.11418C7.45923 0.961036 7.23651 0.875 7.00428 0.875C6.77205 0.875 6.54933 0.961036 6.38511 1.11418C6.2209 1.26733 6.12865 1.47504 6.12865 1.69162L6.12865 10.6751L3.24782 7.98847C3.0841 7.8347 2.86158 7.74788 2.62922 7.74711C2.39686 7.74635 2.17369 7.8317 2.0088 7.98439C1.84392 8.13708 1.75083 8.3446 1.75001 8.5613C1.74918 8.778 1.8407 8.98613 2.00443 9.13991L5.76964 12.6432C6.09656 12.9499 6.54056 13.1232 7.00428 13.125Z" fill="white"/>
</svg>