<svg xmlns="http://www.w3.org/2000/svg" width="14" height="14" viewBox="0 0 14 14" fill="none">
  <path d="M13.125 6.99572C13.121 6.53505 12.9479 6.09461 12.6432 5.76984L9.13991 2.00463C8.9869 1.84154 8.77993 1.75 8.56419 1.75C8.34845 1.75 8.14148 1.84154 7.98847 2.00463C7.91193 2.08603 7.85118 2.18287 7.80972 2.28958C7.76826 2.39628 7.74692 2.51073 7.74692 2.62633C7.74692 2.74192 7.76826 2.85637 7.80972 2.96307C7.85118 3.06978 7.91193 3.16662 7.98847 3.24802L10.6751 6.12009H1.69162C1.47504 6.12009 1.26733 6.21235 1.11418 6.37656C0.961036 6.54077 0.875 6.76349 0.875 6.99572C0.875 7.22795 0.961036 7.45067 1.11418 7.61489C1.26733 7.7791 1.47504 7.87135 1.69162 7.87135L10.6751 7.87135L7.98847 10.7522C7.8347 10.9159 7.74788 11.1384 7.74711 11.3708C7.74635 11.6031 7.8317 11.8263 7.98439 11.9912C8.13708 12.1561 8.3446 12.2492 8.5613 12.25C8.778 12.2508 8.98613 12.1593 9.13991 11.9956L12.6432 8.23036C12.9499 7.90344 13.1232 7.45944 13.125 6.99572Z" fill="white"/>
</svg>