<svg xmlns="http://www.w3.org/2000/svg" width="25" height="25" viewBox="0 0 25 25" fill="none">
  <g clip-path="url(#clip0_75_1468)">
    <path d="M20.4912 3.16854C20.3611 3.10159 20.2044 3.11304 20.0855 3.19791L17.5053 5.04091L13.4737 3.8651C12.0531 3.45064 10.7162 2.89503 9.59587 2.40617C8.77914 2.04988 7.91035 1.90282 7.01332 1.96824C5.35085 2.09046 3.881 2.99356 2.95901 4.29712H1.17188C1.03683 4.29712 0.911331 4.36693 0.840187 4.48156C0.145721 5.59869 0 6.69713 0 7.42212C0 8.73285 0.45681 9.74451 0.839806 10.3623C0.91114 10.4773 1.03664 10.5471 1.17188 10.5471H2.94042C3.10376 10.7801 3.28057 11.0056 3.48206 11.2149C3.77092 11.5149 4.08967 11.7732 4.42827 11.9961L5.23498 15.8324C4.9536 16.0249 4.67732 16.2548 4.41132 16.5209C3.68366 17.2486 3.49197 18.2263 3.26977 19.3587C3.09067 20.2721 2.88754 21.3076 2.37541 22.5026C2.29034 22.7009 2.38228 22.9306 2.58045 23.0155C2.63062 23.037 2.68288 23.0473 2.73418 23.0473C2.88582 23.0473 3.03001 22.9584 3.09334 22.8104C3.63827 21.5392 3.85895 20.4135 4.03633 19.509C4.25014 18.4197 4.40445 17.6325 4.96368 17.0733C5.11155 16.9254 5.26216 16.7905 5.41444 16.6693L5.86777 18.8304C5.90611 19.0135 6.06747 19.1409 6.24962 19.1409C6.26793 19.1409 6.28662 19.1395 6.30531 19.1369L7.46944 18.9706C7.59225 19.3725 8.04894 20.6271 9.06944 21.0215C9.27734 21.102 9.4923 21.1421 9.71413 21.1421C10.1685 21.1421 10.6504 20.9736 11.1542 20.6378C11.8069 20.2027 12.0819 19.4485 11.9091 18.5685C11.6517 17.2577 10.3781 15.7023 8.64832 15.2176L9.22582 14.0627H10.5469C10.7626 14.0627 10.9375 13.8878 10.9375 13.6721V11.8815C11.765 11.5477 12.6145 11.2298 13.4752 10.9788L17.5053 9.80332L20.0855 11.6463C20.153 11.6944 20.2326 11.719 20.3125 11.719C20.3735 11.719 20.435 11.7047 20.4912 11.6757C20.6213 11.6087 20.7031 11.4747 20.7031 11.3284V3.51587C20.7031 3.36957 20.6213 3.23549 20.4912 3.16854ZM1.39503 9.76587C1.09367 9.22723 0.78125 8.42672 0.78125 7.42212C0.78125 6.94299 0.864029 6.02575 1.39465 5.07837H2.49848C2.1806 5.73328 1.98569 6.45402 1.95713 7.21059C1.9232 8.11041 2.1081 8.97975 2.48206 9.76587H1.39503ZM6.05793 15.9319C6.05431 15.9142 6.04935 15.8968 6.04324 15.8803L5.32732 12.4756C5.98176 12.7467 6.68938 12.8909 7.42188 12.8909C7.81999 12.8909 8.21111 12.8449 8.59375 12.7605V13.58L7.8537 15.0599C7.81193 15.1436 7.80144 15.2398 7.82452 15.3306L8.50048 18.0342L6.55708 18.3117L6.05793 15.9319ZM11.1425 18.719C11.2207 19.1174 11.2112 19.6608 10.7208 19.9877C10.1957 20.3379 9.73549 20.4409 9.35287 20.2935C8.77528 20.0715 8.40845 19.3077 8.25424 18.8584L9.03969 18.7462C9.14917 18.7306 9.24683 18.6694 9.30843 18.5776C9.37023 18.4859 9.39007 18.3722 9.36337 18.265L8.82323 16.1032C10.0506 16.608 10.9554 17.7665 11.1425 18.719ZM10.1562 13.2815H9.375V12.522C9.43553 12.4986 9.49743 12.4803 9.55734 12.4547C9.75389 12.3707 9.95579 12.2864 10.1562 12.2021V13.2815ZM13.2565 10.2288C11.8673 10.6341 10.5158 11.1956 9.25026 11.7364C8.67081 11.9841 8.05569 12.1096 7.42188 12.1096C6.13613 12.1096 4.93679 11.5994 4.04491 10.673C3.15342 9.74718 2.68917 8.528 2.738 7.23997C2.8265 4.89297 4.72965 2.91944 7.07054 2.74759C7.18975 2.73881 7.30839 2.73443 7.42626 2.73443C8.06942 2.73443 8.69274 2.86432 9.28345 3.12219C10.4263 3.62096 11.792 4.1884 13.2551 4.61507L17.1875 5.76196V9.08227L13.2565 10.2288ZM19.9219 10.5692L17.9688 9.17421V5.67003L19.9219 4.27499V10.5692Z" fill="#101C38"/>
    <path d="M7.42188 4.29688C5.69878 4.29688 4.29688 5.69878 4.29688 7.42188C4.29688 9.14497 5.69878 10.5469 7.42188 10.5469C9.14497 10.5469 10.5469 9.14497 10.5469 7.42188C10.5469 5.69878 9.14497 4.29688 7.42188 4.29688ZM7.42188 9.76562C6.12946 9.76562 5.07812 8.71429 5.07812 7.42188C5.07812 6.12946 6.12946 5.07812 7.42188 5.07812C8.71429 5.07812 9.76562 6.12946 9.76562 7.42188C9.76562 8.71429 8.71429 9.76562 7.42188 9.76562Z" fill="#101C38"/>
    <path d="M24.4348 7.07284L24.2834 7.14856C24.0202 7.28036 23.7041 7.26033 23.459 7.09726C22.9805 6.77854 22.365 6.74001 21.8519 6.99712L21.7004 7.07284C21.5074 7.16935 21.4292 7.40396 21.5257 7.59698C21.622 7.79 21.8561 7.86859 22.0499 7.77169L22.2013 7.69597C22.4645 7.56437 22.7806 7.5842 23.0257 7.74728C23.2935 7.92562 23.6042 8.01622 23.9162 8.01622C24.1613 8.01622 24.407 7.96033 24.6328 7.84742L24.7842 7.77169C24.9773 7.67518 25.0555 7.44058 24.9589 7.24755C24.8624 7.05472 24.628 6.97633 24.4348 7.07284Z" fill="#101C38"/>
    <path d="M22.0499 5.42772L22.2013 5.352C22.4645 5.2202 22.7806 5.24023 23.0257 5.40331C23.2935 5.58165 23.6042 5.67225 23.9162 5.67225C24.1613 5.67225 24.407 5.61636 24.6328 5.50345L24.7842 5.42772C24.9773 5.33121 25.0555 5.09661 24.9589 4.90358C24.8624 4.71075 24.628 4.63179 24.4348 4.72887L24.2834 4.80459C24.0202 4.9362 23.7041 4.91636 23.459 4.75329C22.9805 4.43476 22.365 4.39642 21.8519 4.65315L21.7004 4.72887C21.5074 4.82538 21.4292 5.05999 21.5257 5.25301C21.622 5.44584 21.8561 5.52462 22.0499 5.42772Z" fill="#101C38"/>
    <path d="M24.4348 9.41639L24.2834 9.49211C24.0202 9.6241 23.7041 9.60369 23.459 9.4408C22.9805 9.12247 22.365 9.08375 21.8519 9.34067L21.7004 9.41639C21.5074 9.5129 21.4292 9.7475 21.5257 9.94053C21.622 10.1336 21.8561 10.2119 22.0499 10.1152L22.2013 10.0395C22.4645 9.90753 22.7806 9.92794 23.0257 10.0908C23.2935 10.2692 23.6042 10.3598 23.9162 10.3598C24.1613 10.3598 24.407 10.3039 24.6328 10.191L24.7842 10.1152C24.9773 10.0187 25.0555 9.78413 24.9589 9.5911C24.8624 9.39808 24.628 9.31969 24.4348 9.41639Z" fill="#101C38"/>
  </g>
  <defs>
    <clipPath id="clip0_75_1468">
      <rect width="25" height="25" fill="white"/>
    </clipPath>
  </defs>
</svg>