<svg xmlns="http://www.w3.org/2000/svg" width="24" height="24" viewBox="0 0 24 24" fill="none">
  <path fill-rule="evenodd" clip-rule="evenodd" d="M19.6843 17.7979V17.825C19.6873 18.1573 19.6225 18.4867 19.4937 18.7934C19.365 19.1001 19.175 19.3778 18.9352 19.6098C18.6954 19.8417 18.4108 20.023 18.0985 20.1429C17.7863 20.2628 17.4527 20.3187 17.1181 20.3072L16.0554 20.2699C13.6395 20.0359 10.9297 20.4496 8.59586 20.921C5.67765 21.5144 3.86998 19.6731 4.72084 16.8518C5.46235 14.3764 7.31443 11.8603 11.3159 11.6738C19.411 11.2872 19.6843 17.7979 19.6843 17.7979Z" fill="#FFB839"/>
  <path fill-rule="evenodd" clip-rule="evenodd" d="M11.6777 3.03371C13.1026 2.97607 14.2678 4.60035 14.2815 6.65867C14.2952 8.71699 13.1504 10.4294 11.7255 10.4871C10.3005 10.5447 9.13532 8.92045 9.12507 6.86213C9.11482 4.80381 10.2527 3.08797 11.6777 3.03371Z" fill="#FFB839"/>
  <path fill-rule="evenodd" clip-rule="evenodd" d="M20.5558 5.40412C19.3188 4.70219 17.5282 5.61097 16.5646 7.43871C15.6009 9.26644 15.8162 11.3044 17.0566 12.003C18.2971 12.7015 20.0808 11.7961 21.0478 9.96837C22.0148 8.14064 21.7962 6.10267 20.5558 5.40412Z" fill="#FFB839"/>
  <path fill-rule="evenodd" clip-rule="evenodd" d="M3.04655 6.44853C4.05118 5.69912 5.71531 6.29593 6.76094 7.78118C7.80657 9.26643 7.84416 11.0738 6.84295 11.8232C5.84174 12.5726 4.17419 11.9758 3.12856 10.4906C2.08293 9.00533 2.04534 7.19454 3.04655 6.44853Z" fill="#FFB839"/>
</svg>