<svg xmlns="http://www.w3.org/2000/svg" width="21" height="21" viewBox="0 0 21 21" fill="none">
  <path d="M10.4252 20.15C6.32027 20.15 1.22694 18.0157 0.379754 11.9974C-0.678202 4.48939 2.2542 0.548141 2.37903 0.384434C2.47521 0.257561 2.6205 0.175707 2.78011 0.155244C2.93768 0.13478 3.09729 0.181847 3.22212 0.282117C4.52564 1.33803 5.70228 2.75614 6.23228 3.43348C8.05556 2.68452 11.786 2.17702 14.6243 3.42938C15.1564 2.75 16.331 1.33598 17.6304 0.282117C17.7532 0.183893 17.9107 0.136826 18.0642 0.153197C18.2197 0.169568 18.363 0.247329 18.4632 0.37011C18.5901 0.525631 21.5389 4.28475 20.4727 11.9953C19.4537 19.354 13.108 20.15 10.4252 20.15ZM2.98474 1.64088C2.28285 2.90347 0.77879 6.36588 1.55026 11.8316C2.50794 18.6214 9.10943 18.9652 10.4252 18.9652C13.3699 18.9652 18.4407 18.0382 19.2981 11.8316C20.0737 6.22673 18.5758 2.85027 17.8739 1.63065C16.466 2.90347 15.2894 4.50371 15.2771 4.52213C15.1032 4.7595 14.7819 4.83112 14.522 4.69607C11.7942 3.24931 7.74043 3.9246 6.33255 4.69197C6.07062 4.83317 5.74729 4.76155 5.57131 4.52213C5.55903 4.50371 4.38444 2.91166 2.98474 1.64088Z" fill="white" stroke="white" stroke-width="0.3"/>
  <path d="M5.79035 8.40822C6.56387 8.40822 7.19209 9.04668 7.19209 9.83247C7.19209 10.6183 6.56387 11.2567 5.79035 11.2567C5.01684 11.2567 4.38861 10.6183 4.38861 9.83247C4.38861 9.04668 5.01684 8.40822 5.79035 8.40822Z" fill="white"/>
  <path d="M15.0635 8.40813C15.837 8.40813 16.4652 9.04659 16.4652 9.83238C16.4652 10.6182 15.837 11.2566 15.0635 11.2566C14.29 11.2566 13.6618 10.6182 13.6618 9.83238C13.6618 9.04659 14.29 8.40813 15.0635 8.40813Z" fill="white"/>
  <path d="M10.427 11.2073C9.51022 11.2073 8.7674 11.2912 8.7674 11.7966C8.7674 12.3021 9.97065 13.1452 10.427 13.1452C10.8833 13.1452 12.0866 12.3471 12.0866 11.7966C12.0866 11.2912 11.3437 11.2073 10.427 11.2073Z" fill="white"/>
  <path d="M8.40893 15.7367C7.13406 15.7367 6.31962 14.7974 6.14773 14.0444C6.07406 13.7252 6.2746 13.408 6.59178 13.3363C6.91101 13.2627 7.22819 13.4632 7.29981 13.7804C7.3612 14.0485 7.82368 14.7197 8.77113 14.5089C9.84955 14.2674 9.79839 12.792 9.79635 12.7286C9.78202 12.4032 10.0337 12.127 10.3591 12.1106C10.7008 12.1065 10.9607 12.3459 10.9771 12.6713C11.0221 13.5451 10.6722 15.2967 9.02897 15.6651C8.81001 15.7142 8.60333 15.7367 8.40688 15.7367H8.40893Z" fill="white"/>
  <path d="M12.4442 15.7362C12.2478 15.7362 12.0391 15.7137 11.8222 15.6646C10.179 15.2962 9.82902 13.5466 9.87404 12.6708C9.89041 12.3454 10.1789 12.0958 10.4961 12.1101C10.8235 12.1265 11.0732 12.4048 11.0568 12.7322C11.0548 12.7936 11.0036 14.269 12.082 14.5104C13.0295 14.7212 13.492 14.05 13.5534 13.7819C13.627 13.4627 13.9442 13.2642 14.2614 13.3358C14.5806 13.4095 14.7791 13.7267 14.7075 14.0439C14.5356 14.7969 13.7212 15.7362 12.4463 15.7362H12.4442Z" fill="white"/>
</svg>