<svg xmlns="http://www.w3.org/2000/svg" width="100" height="100" viewBox="0 0 100 100" fill="none">
  <path d="M13.52 44.5548C10.9678 30.3893 15.8053 20.4396 18.5431 17.2354C33.1112 0.364767 78.5954 24.729 83.0628 31.9511C87.6114 39.3043 85.5988 49.5575 78.4417 56.6531C71.2846 63.7487 68.5744 70.6211 66.9113 73.754C65.2482 76.8868 59.5463 89.6428 48.1304 91.1202C27.5483 93.2779 16.7102 62.2618 13.52 44.5548Z" fill="#1E5EBE" fill-opacity="0.18"/>
  <path d="M98.2789 56.1881V54.5443V53.4807L97.66 52.6491L87.9327 39.3635L85.6507 36.25C85.2059 35.6311 84.5678 35.1863 83.8522 34.9736C83.4268 30.1196 79.3464 26.3873 74.473 26.3679H6.92323C5.6082 26.3679 4.54458 27.4122 4.52524 28.7273V33.0591H3.63566V34.993H4.54458V45.7259H1.75981V47.6598H4.54458V50.7926C3.71301 50.986 3.13286 51.7209 3.11352 52.5718V56.0914C3.11352 56.4008 3.19087 56.7102 3.34558 57.0003C3.22955 57.2324 3.17153 57.5031 3.17153 57.7739V61.2935C3.17153 62.125 3.73235 62.8599 4.54458 63.0726V67.9073C4.54458 69.2223 5.6082 70.2859 6.92323 70.2859H6.94256H13.1889L13.247 69.3964C13.5564 64.5811 17.4241 61.1001 22.4521 61.1001C27.4802 61.1001 31.4253 64.6584 31.7347 69.3964L31.7927 70.2859H71.8623L71.959 69.4157C72.4811 64.3297 77.0257 60.6166 82.1118 61.1388C86.4823 61.5836 89.9246 65.0452 90.3887 69.4157L90.4661 70.2859H95.6875C97.1185 70.2859 98.2789 69.1256 98.2789 67.6946V62.8793C99.3231 62.4151 100 61.3902 100 60.2492V58.8181C100 57.6772 99.3231 56.6522 98.2789 56.1881ZM86.9464 41.2974L91.9358 48.0852L95.4941 52.9585H79.327C79.0563 52.9585 78.8436 52.7458 78.8436 52.4751V41.7808C78.8436 41.5101 79.0563 41.2974 79.327 41.2974H86.9464ZM97.1185 57.8899C97.6407 57.8899 98.0468 58.296 98.0661 58.8181V60.2492C98.0661 60.7713 97.6407 61.1968 97.1185 61.1968H96.8285C96.6544 61.1968 96.4997 61.1388 96.345 61.0614C96.0743 60.8874 95.9002 60.578 95.9002 60.2492V58.8181C95.9002 58.4894 96.0743 58.1993 96.345 58.0253C96.4804 57.9286 96.6544 57.8899 96.8285 57.8899H97.1185ZM5.12473 61.1968V57.9286H7.29066V61.1968H5.12473ZM7.23264 55.956H5.06672V52.6878H7.23264V55.956ZM33.5718 68.3521C32.779 63.0533 28.157 59.1662 22.4521 59.1662C16.7472 59.1662 12.2027 63.0533 11.4291 68.3521H6.98124C6.72984 68.3714 6.53645 68.178 6.51711 67.9266V67.9073V63.1307H7.40669C8.4123 63.1307 9.24386 62.2991 9.24386 61.2935V57.7739C9.24386 57.4644 9.1665 57.155 9.0118 56.8843C9.12783 56.6329 9.18584 56.3621 9.18584 56.0914V52.5718C9.18584 51.5662 8.37362 50.7539 7.36801 50.7539H6.49778V47.6598H10.7909V45.7259H6.47844V34.993H24.212V33.0591H6.4591V28.7273C6.47844 28.4758 6.67182 28.2825 6.92323 28.3018H74.473C78.2247 28.3018 81.3962 31.0866 81.8797 34.7996H53.4906C52.7751 34.7996 52.1949 35.3797 52.1949 36.0953L52.311 68.3327L33.5718 68.3521ZM54.1288 36.7528H68.0913L68.13 68.236L54.2448 68.3521L54.1288 36.7528ZM96.345 67.6752C96.345 68.0427 96.0549 68.3327 95.6875 68.3327H92.1872C91.0849 62.2411 85.2446 58.2186 79.153 59.3403C74.6084 60.1718 71.0501 63.6915 70.1798 68.2167V36.7528H82.9047C83.3881 36.7721 83.8329 37.0042 84.1037 37.391L85.554 39.3635H79.327C77.9927 39.3635 76.9097 40.4465 76.9097 41.7808V52.4751C76.9097 53.8094 77.9927 54.8924 79.327 54.8924H96.345V55.9947C94.972 56.2268 93.9663 57.4258 93.9663 58.8181V60.2492C93.9663 61.6416 94.972 62.8406 96.345 63.092V67.6752ZM81.1642 61.7189C76.3295 61.7189 72.3844 65.606 72.3844 70.3826C72.3844 75.1593 76.3295 79.0463 81.1642 79.0463C85.9988 79.0463 89.9633 75.1593 89.9633 70.3826C89.9633 65.606 86.0182 61.7189 81.1642 61.7189ZM81.1642 77.1125C77.3932 77.1125 74.3183 74.0957 74.3183 70.3826C74.3183 66.6696 77.3932 63.6528 81.1642 63.6528C84.9352 63.6528 88.0294 66.6696 88.0294 70.3826C88.0294 74.0957 84.9546 77.1125 81.1642 77.1125ZM81.1642 65.9928C78.7469 66.0314 76.7936 68.0233 76.8323 70.4407C76.871 72.858 78.8629 74.8112 81.2802 74.7725C83.6782 74.7338 85.6121 72.7806 85.6121 70.3826C85.5927 67.946 83.6008 65.9734 81.1642 65.9928ZM81.1642 72.8386C79.8105 72.8 78.7275 71.6783 78.7662 70.3246C78.8049 68.9709 79.9265 67.888 81.2802 67.9266C82.6146 67.9653 83.6782 69.0483 83.6782 70.3826C83.6589 71.7557 82.5566 72.858 81.1835 72.8386H81.1642ZM22.4521 61.7189C17.6175 61.7189 13.6724 65.606 13.6724 70.3826C13.6724 75.1593 17.6175 79.0463 22.4521 79.0463C27.2868 79.0463 31.2512 75.1593 31.2512 70.3826C31.2512 65.606 27.3061 61.7189 22.4521 61.7189ZM22.4521 77.1125C18.6811 77.1125 15.6063 74.0957 15.6063 70.3826C15.6063 66.6696 18.6811 63.6528 22.4521 63.6528C26.2232 63.6528 29.3173 66.6696 29.3173 70.3826C29.3173 74.0957 26.2425 77.1125 22.4521 77.1125ZM22.4521 65.9928C20.0348 66.0314 18.0816 68.0233 18.1203 70.4407C18.159 72.858 20.1508 74.8112 22.5682 74.7725C24.9662 74.7338 26.9 72.7806 26.9 70.3826C26.8807 67.946 24.8888 65.9734 22.4521 65.9928ZM22.4521 72.8386C21.0984 72.8 20.0155 71.6783 20.0541 70.3246C20.0928 68.9709 21.2145 67.888 22.5682 67.9266C23.9025 67.9653 24.9662 69.0483 24.9662 70.3826C24.9468 71.7557 23.8252 72.858 22.4521 72.8386ZM60.9166 50.5412C60.9166 51.0827 60.4912 51.5081 59.9497 51.5081H57.281V57.3484C57.281 57.8899 56.8555 58.3153 56.3141 58.3153C55.7726 58.3153 55.3471 57.8899 55.3471 57.3484V49.5743H59.9497C60.4719 49.5936 60.8973 50.0191 60.9166 50.5412ZM34.6355 73.5542H37.4009V75.488H34.6355V73.5542ZM39.4508 73.5542H68.4587V75.488H39.4508V73.5542ZM16.0511 22.887H13.2856V20.9531H16.0511V22.887ZM33.5525 22.887H18.1009V20.9531H33.5525V22.887ZM2.10791 35.0316L0 34.993L0.0386772 33.0591L2.14659 33.0978L2.10791 35.0316ZM13.6531 45.7259H41.4813V47.6598H13.6531V45.7259ZM30.7677 41.0653H9.66931V39.1314H30.7677V41.0653Z" fill="#1E5EBE"/>
</svg>