<svg xmlns="http://www.w3.org/2000/svg" width="100" height="100" viewBox="0 0 100 100" fill="none">
  <g clip-path="url(#clip0_51_1809)">
    <path d="M16.02 45.8048C13.4678 31.6393 18.3053 21.6896 21.0431 18.4854C35.6112 1.61477 81.0954 25.979 85.5628 33.2011C90.1114 40.5543 88.0988 50.8075 80.9417 57.9031C73.7846 64.9987 71.0744 71.8711 69.4113 75.004C67.7482 78.1368 62.0463 90.8928 50.6304 92.3702C30.0483 94.5279 19.2102 63.5118 16.02 45.8048Z" fill="#1E5EBE" fill-opacity="0.18"/>
    <path d="M82.3414 35.5421L62.7042 26.5951V21.5918C62.7042 21.5918 20.9661 13.208 20.8422 13.208L20.8419 15.0751L71.5903 37.3483" stroke="#1E5EBE" stroke-width="2.5" stroke-miterlimit="10"/>
    <path d="M94.5059 48.5792C95.0108 47.4929 95.2853 46.3138 95.3121 45.1162C95.264 43.8555 94.8578 42.6346 94.141 41.5963C93.4243 40.5581 92.4266 39.7454 91.2648 39.2535C88.8059 37.9453 86.2495 36.8292 83.6185 35.9152C82.661 35.5681 81.6524 35.383 80.634 35.3672C78.1833 35.3672 75.99 36.6363 74.5746 39.8772L74.2434 40.6359C73.7385 41.7222 73.464 42.9013 73.4371 44.0989C73.4853 45.3596 73.8915 46.5805 74.6083 47.6188C75.325 48.657 76.3227 49.4696 77.4844 49.9615C86.353 54.6912 92.4492 52.9821 94.5059 48.5792Z" stroke="#1E5EBE" stroke-width="2.5" stroke-miterlimit="10"/>
    <path d="M61.715 21.47L73.9128 16.1045" stroke="#1E5EBE" stroke-width="2.5" stroke-miterlimit="10"/>
    <path d="M61.5382 32.8409C54.7818 34.1977 20.9538 40.9903 20.8422 40.9903L20.8419 39.1232L42.2982 29.7939L42.6427 28.9316" stroke="#1E5EBE" stroke-width="2.5" stroke-miterlimit="10"/>
    <path d="M83.2878 18.5986L63.9922 27.0429" stroke="#1E5EBE" stroke-width="2.5" stroke-miterlimit="10"/>
    <path d="M94.5059 5.7743C95.0108 6.86063 95.2853 8.03971 95.3121 9.23732C95.264 10.498 94.8578 11.7189 94.141 12.7572C93.4243 13.7955 92.4266 14.6081 91.2648 15.1C88.8059 16.4082 86.2495 17.5243 83.6185 18.4384C82.661 18.7854 81.6524 18.9706 80.634 18.9863C78.1833 18.9863 75.99 17.7172 74.5746 14.4763L74.2434 13.7176C73.7385 12.6313 73.464 11.4523 73.4371 10.2547C73.4853 8.99397 73.8915 7.77305 74.6083 6.7348C75.325 5.69655 76.3227 4.88392 77.4844 4.39201C86.353 -0.337665 92.4493 1.37141 94.5059 5.7743Z" stroke="#1E5EBE" stroke-width="2.5" stroke-miterlimit="10"/>
    <path d="M57.2927 27.3066C58.1557 27.3066 58.8552 26.6071 58.8552 25.7441C58.8552 24.8812 58.1557 24.1816 57.2927 24.1816C56.4298 24.1816 55.7302 24.8812 55.7302 25.7441C55.7302 26.6071 56.4298 27.3066 57.2927 27.3066Z" fill="#1E5EBE"/>
    <path d="M93.6701 55.7402C94.9459 56.4531 96.0359 57.4564 96.8518 58.6689C97.6677 59.8813 98.1866 61.2689 98.3664 62.7193C98.5463 64.1696 98.382 65.6419 97.887 67.0169C97.392 68.392 96.58 69.6311 95.517 70.634L89.5178 76.2936C84.6457 79.9194 80.6264 84.5677 77.742 89.9122L77.0211 91.248C76.7785 91.6976 76.4106 92.0673 75.9621 92.3122C75.5136 92.5571 75.0038 92.6666 74.4943 92.6277C73.9848 92.5887 73.4975 92.4028 73.0915 92.0925C72.6855 91.7823 72.3781 91.3609 72.2067 90.8796L68.1079 79.9054" stroke="#1E5EBE" stroke-width="2.5" stroke-linecap="round" stroke-linejoin="round"/>
    <path d="M18.7499 46.3838L16.8206 48.1174C13.6381 51.0651 10.1164 53.6238 6.32955 55.7396C5.05376 56.4525 3.96377 57.4558 3.14787 58.6683C2.33197 59.8808 1.81308 61.2683 1.63324 62.7187C1.45339 64.169 1.61764 65.6413 2.11268 67.0164C2.60772 68.3914 3.41964 69.6305 4.48268 70.6334L10.4819 76.2931C15.354 79.9188 19.3733 84.5671 22.2577 89.9116L22.9785 91.2474C23.2212 91.697 23.5891 92.0667 24.0376 92.3116C24.4861 92.5565 24.9959 92.6661 25.5054 92.6271C26.0149 92.5881 26.5022 92.4022 26.9082 92.0919C27.3142 91.7817 27.6215 91.3604 27.793 90.879L32.1565 80.0768" stroke="#1E5EBE" stroke-width="2.5" stroke-linecap="round" stroke-linejoin="round"/>
    <path d="M56.25 63.6757C56.25 67.0809 51.4642 69.0224 50.0211 69.0224C48.2873 69.0224 43.75 66.8275 43.75 63.6519C43.75 59.2987 49.4378 59.3751 50.0211 59.3751C56.2294 59.3751 56.25 63.114 56.25 63.6757Z" stroke="#1E5EBE" stroke-width="2.5" stroke-miterlimit="10"/>
    <path d="M50 69.5996V74.6543L42.8894 81.2389C41.6107 82.5176 39.8765 83.2359 38.0682 83.2359C36.2599 83.2359 34.5257 82.5176 33.247 81.2389C31.9683 79.9603 31.25 78.2261 31.25 76.4178C31.25 74.6095 31.9683 72.8752 33.247 71.5966" stroke="#1E5EBE" stroke-width="2.5" stroke-linecap="round" stroke-linejoin="round"/>
    <path d="M38.2812 53.125C39.5757 53.125 40.625 52.0757 40.625 50.7812C40.625 49.4868 39.5757 48.4375 38.2812 48.4375C36.9868 48.4375 35.9375 49.4868 35.9375 50.7812C35.9375 52.0757 36.9868 53.125 38.2812 53.125Z" fill="#1E5EBE"/>
    <path d="M50 69.5996V74.6543L57.1106 81.2389C58.3893 82.5176 60.1235 83.2359 61.9318 83.2359C63.7401 83.2359 65.4743 82.5176 66.753 81.2389C68.0317 79.9603 68.75 78.2261 68.75 76.4178C68.75 74.6095 68.0317 72.8752 66.753 71.5966" stroke="#1E5EBE" stroke-width="2.5" stroke-linecap="round" stroke-linejoin="round"/>
    <path d="M61.7188 53.125C63.0132 53.125 64.0625 52.0757 64.0625 50.7812C64.0625 49.4868 63.0132 48.4375 61.7188 48.4375C60.4243 48.4375 59.375 49.4868 59.375 50.7812C59.375 52.0757 60.4243 53.125 61.7188 53.125Z" fill="#1E5EBE"/>
    <path d="M43.75 81.25C44.5708 82.0708 45.5451 82.7218 46.6175 83.166C47.6899 83.6102 48.8393 83.8388 50 83.8388C51.1607 83.8388 52.3101 83.6102 53.3825 83.166C54.4549 82.7218 55.4292 82.0708 56.25 81.25" stroke="#1E5EBE" stroke-width="2.5" stroke-linecap="round" stroke-linejoin="round"/>
    <path d="M25.5266 45.3174C24.1772 48.8194 23.4695 52.5359 23.4375 56.2888C23.4375 61.3532 24.8661 64.9766 28.4027 72.2397" stroke="#1E5EBE" stroke-width="2.5" stroke-linecap="round" stroke-linejoin="round"/>
    <path d="M71.5973 72.2392C75.1338 64.9761 76.5625 61.3526 76.5625 56.2883C76.5516 53.7752 76.2251 51.2735 75.5905 48.8418" stroke="#1E5EBE" stroke-width="2.5" stroke-linecap="round" stroke-linejoin="round"/>
    <path d="M48.4375 53.125H51.5625" stroke="#1E5EBE" stroke-width="2.5" stroke-miterlimit="10" stroke-linecap="round"/>
    <path d="M74.1372 98.4371C73.6493 95.8805 73.0046 93.3563 72.2067 90.8789" stroke="#1E5EBE" stroke-width="2.5" stroke-linecap="round" stroke-linejoin="round"/>
    <path d="M27.7929 90.8789C26.995 93.3563 26.3503 95.8805 25.8624 98.4371" stroke="#1E5EBE" stroke-width="2.5" stroke-linecap="round" stroke-linejoin="round"/>
    <path d="M26.5625 28.9062L28.125 30.4688" stroke="#1E5EBE" stroke-width="2.5" stroke-linecap="round" stroke-linejoin="round"/>
    <path d="M32.8125 26.5625L34.375 28.125" stroke="#1E5EBE" stroke-width="2.5" stroke-linecap="round" stroke-linejoin="round"/>
  </g>
  <defs>
    <clipPath id="clip0_51_1809">
      <rect width="100" height="100" fill="white"/>
    </clipPath>
  </defs>
</svg>