<svg xmlns="http://www.w3.org/2000/svg" width="100" height="100" viewBox="0 0 100 100" fill="none">
  <path d="M89.8217 84.4335H87.1042V81.1217C87.1042 79.093 85.4596 77.4485 83.4309 77.4485C81.6061 77.4485 80.0592 78.7874 79.7957 80.5932C79.6223 81.7817 79.4444 83.1303 79.3356 84.3069C79.0203 87.719 76.9701 97.3021 85.4383 97.3021H89.195C91.2454 97.3021 92.9794 95.7847 93.2512 93.7525L93.878 89.0688C94.2063 86.6147 92.2975 84.4335 89.8217 84.4335Z" stroke="#D0A045" stroke-width="2.60743" stroke-miterlimit="10" stroke-linecap="round" stroke-linejoin="round"/>
  <path d="M30.6255 96.9007V89.8411" stroke="#D0A045" stroke-width="2.60743" stroke-miterlimit="10" stroke-linecap="round" stroke-linejoin="round"/>
  <path d="M57.2427 89.8411V96.9007" stroke="#D0A045" stroke-width="2.60743" stroke-miterlimit="10" stroke-linecap="round" stroke-linejoin="round"/>
  <path d="M90.1442 71.7223C89.4702 72.088 88.6626 72.0891 87.9874 71.7254C84.1561 69.662 79.5709 65.1354 79.5653 61.3699C79.561 58.5328 81.8574 56.2295 84.6946 56.2252C86.5264 56.2225 88.1344 57.1795 89.0461 58.6211C89.9536 57.1768 91.5589 56.2148 93.3905 56.2121C96.2276 56.2078 98.5309 58.5043 98.5352 61.3414C98.5409 65.1071 93.9694 69.6475 90.1442 71.7223Z" stroke="#D0A045" stroke-width="2.60743" stroke-miterlimit="10" stroke-linecap="round" stroke-linejoin="round"/>
  <path d="M6.71301 83.129C9.17103 85.7618 13.396 87.8206 17.1595 87.7409" stroke="#D0A045" stroke-width="2.60743" stroke-miterlimit="10" stroke-linecap="round" stroke-linejoin="round"/>
  <path d="M3.67704 38.1833C2.30497 39.4874 1.46512 41.2325 1.46512 43.1515C1.43524 47.454 5.7583 50.8837 10.6064 50.4234" stroke="#D0A045" stroke-width="2.60743" stroke-miterlimit="10" stroke-linecap="round" stroke-linejoin="round"/>
  <path d="M84.1664 77.5225C84.9799 74.6217 84.7211 71.1377 83.4355 68.3365" stroke="#D0A045" stroke-width="2.60743" stroke-miterlimit="10" stroke-linecap="round" stroke-linejoin="round"/>
  <path d="M77.2619 50.4234C82.1104 50.8835 86.433 47.4538 86.4031 43.1515C86.4031 41.2327 85.5631 39.4874 84.1912 38.1833" stroke="#D0A045" stroke-width="2.60743" stroke-miterlimit="10" stroke-linecap="round" stroke-linejoin="round"/>
  <path d="M3.63273 48.0703C2.69346 49.397 2.02061 50.9433 1.71182 52.6486C0.843262 57.4445 3.08858 62.0809 7.00461 64.4881C5.22472 66.3668 3.9507 68.7649 3.45499 71.5014C3.11085 73.4018 3.17569 75.2813 3.5839 77.0508" stroke="#D0A045" stroke-width="2.60743" stroke-miterlimit="10" stroke-linecap="round" stroke-linejoin="round"/>
  <path d="M10.2737 37.2337C9.84031 39.1536 9.61121 41.1386 9.61121 43.1708C9.61121 59.8791 24.9783 73.4239 43.9342 73.4239C62.8901 73.4239 78.2572 59.8791 78.2572 43.1708C78.2572 41.1413 78.0287 39.1591 77.5962 37.2415" stroke="#D0A045" stroke-width="2.60743" stroke-miterlimit="10" stroke-linecap="round" stroke-linejoin="round"/>
  <path d="M50.2073 46.9513C50.2053 43.0737 47.3962 42.7108 43.9309 42.7126C40.4659 42.7143 37.6569 43.0802 37.6588 46.9577C37.6608 50.8353 40.4715 53.9771 43.9366 53.9753C47.4018 53.9736 50.2093 50.8288 50.2073 46.9513Z" stroke="#D0A045" stroke-width="2.60743" stroke-miterlimit="10" stroke-linecap="round" stroke-linejoin="round"/>
  <path d="M33.3614 43.7175C33.3606 42.0349 31.9959 40.6716 30.3133 40.6724C28.6307 40.6731 27.2674 42.038 27.2682 43.7204" stroke="#D0A045" stroke-width="2.60743" stroke-miterlimit="10" stroke-linecap="round" stroke-linejoin="round"/>
  <path d="M54.5015 43.7069C54.5007 42.0243 55.864 40.6597 57.5467 40.6589C59.2293 40.6581 60.5939 42.0214 60.5947 43.704" stroke="#D0A045" stroke-width="2.60743" stroke-miterlimit="10" stroke-linecap="round" stroke-linejoin="round"/>
  <path d="M31.6233 71.4198C23.6983 75.2558 17.8338 82.6792 16.1402 91.5814C15.6139 94.348 17.7721 96.901 20.5883 96.901H82.7842" stroke="#D0A045" stroke-width="2.60743" stroke-miterlimit="10" stroke-linecap="round" stroke-linejoin="round"/>
  <path d="M79.3573 84.0846H72.9732C70.7301 84.0846 68.6527 82.9493 67.3978 81.0901C64.6107 76.961 60.7634 73.6067 56.2451 71.4196" stroke="#D0A045" stroke-width="2.60743" stroke-miterlimit="10" stroke-linecap="round" stroke-linejoin="round"/>
  <path d="M86.2067 56.452C86.7014 53.5963 85.8987 50.4537 84.2399 48.0668" stroke="#D0A045" stroke-width="2.60743" stroke-miterlimit="10" stroke-linecap="round" stroke-linejoin="round"/>
  <path d="M68.963 10.3894C62.0911 5.57517 53.3944 2.69781 43.9342 2.69781C21.6997 2.69781 3.67505 18.5852 3.67505 38.1831C9.99363 38.1831 31.9382 32.3102 43.9342 20.4405C55.9301 32.3102 77.7923 38.1831 84.1933 38.1831C84.1933 29.218 80.4199 21.0309 74.1988 14.7846" stroke="#D0A045" stroke-width="2.60743" stroke-miterlimit="10" stroke-linecap="round" stroke-linejoin="round"/>
</svg>