<svg xmlns="http://www.w3.org/2000/svg" width="24" height="24" viewBox="0 0 24 24" fill="none">
  <path fill-rule="evenodd" clip-rule="evenodd" d="M19.6838 17.7979V17.825C19.6868 18.1573 19.622 18.4867 19.4932 18.7934C19.3645 19.1001 19.1745 19.3778 18.9347 19.6098C18.6949 19.8417 18.4103 20.023 18.0981 20.1429C17.7858 20.2628 17.4522 20.3187 17.1176 20.3072L16.0549 20.2699C13.639 20.0359 10.9292 20.4496 8.59537 20.921C5.67717 21.5144 3.86949 19.6731 4.72035 16.8518C5.46186 14.3764 7.31394 11.8603 11.3154 11.6738C19.4105 11.2872 19.6838 17.7979 19.6838 17.7979Z" fill="#1E5EBE"/>
  <path fill-rule="evenodd" clip-rule="evenodd" d="M11.6777 3.03371C13.1026 2.97607 14.2678 4.60035 14.2815 6.65867C14.2952 8.71699 13.1504 10.4294 11.7255 10.4871C10.3005 10.5447 9.13532 8.92045 9.12507 6.86213C9.11482 4.80381 10.2527 3.08797 11.6777 3.03371Z" fill="#1E5EBE"/>
  <path fill-rule="evenodd" clip-rule="evenodd" d="M20.5553 5.40412C19.3183 4.70219 17.5277 5.61097 16.5641 7.43871C15.6005 9.26644 15.8158 11.3044 17.0562 12.003C18.2966 12.7015 20.0803 11.7961 21.0473 9.96837C22.0144 8.14064 21.7957 6.10267 20.5553 5.40412Z" fill="#1E5EBE"/>
  <path fill-rule="evenodd" clip-rule="evenodd" d="M3.04607 6.44853C4.05069 5.69912 5.71482 6.29593 6.76045 7.78118C7.80609 9.26643 7.84367 11.0738 6.84246 11.8232C5.84125 12.5726 4.17371 11.9758 3.12807 10.4906C2.08244 9.00533 2.04485 7.19454 3.04607 6.44853Z" fill="#1E5EBE"/>
</svg>