<svg xmlns="http://www.w3.org/2000/svg" width="23" height="18" viewBox="0 0 23 18" fill="none">
  <path d="M6.16541 1.38238C9.34808 -0.127456 13.15 -0.127467 16.3344 1.38238C18.0306 2.18774 19.4148 3.3413 20.4467 4.81109C22.2016 7.31101 22.4618 9.98892 22.1195 11.6617C21.8846 12.804 21.361 13.678 20.6429 14.1226C19.6816 14.7181 18.7002 14.8204 17.9486 14.4009C17.7134 14.2703 17.5128 14.0936 17.3519 13.8824C17.0486 14.5209 16.6623 15.1206 16.1664 15.6421C14.9701 16.9005 13.3161 17.5386 11.2474 17.5386L11.2504 17.5406C9.1817 17.5405 7.52768 16.9024 6.33142 15.6441C5.82504 15.1112 5.4314 14.4974 5.12537 13.8433C4.96106 14.0765 4.75187 14.2706 4.50232 14.4097C4.28927 14.5288 3.9538 14.6577 3.51111 14.6578V14.6597C3.06489 14.6597 2.50934 14.5288 1.85681 14.1246C1.1388 13.68 0.615194 12.8057 0.380249 11.6617C0.0379843 9.98894 0.296322 7.3093 2.05115 4.81109C3.08302 3.3413 4.46744 2.18774 6.16541 1.38238ZM15.9183 2.25738C12.9955 0.871486 9.50421 0.871486 6.58142 2.25738C5.03783 2.98891 3.78061 4.03527 2.84607 5.36578C1.26892 7.61239 1.02941 9.99057 1.33142 11.4654C1.50931 12.3309 1.88708 12.9988 2.36853 13.2974C3.01091 13.6948 3.61797 13.7918 4.03064 13.5621C4.36788 13.3741 4.56091 12.9831 4.56091 12.4898C4.56094 12.441 4.56997 12.3945 4.58337 12.3502C3.9778 10.1353 4.09515 7.80807 4.15173 6.68511L4.16345 6.42437C4.1753 6.1577 4.4019 5.95812 4.67029 5.96148C4.93862 5.97335 5.14492 6.19994 5.13318 6.46832L5.11951 6.73296C5.03729 8.3504 4.81953 12.6463 7.03259 14.9752C8.03752 16.0336 9.45683 16.5688 11.2484 16.5689C13.0402 16.5689 14.4585 16.0321 15.4652 14.9752C17.6783 12.6463 17.4605 8.3504 17.3783 6.73296L17.3646 6.46832C17.3529 6.1999 17.5591 5.97329 17.8275 5.96148C18.0959 5.9598 18.3225 6.15602 18.3344 6.42437L18.3461 6.68316C18.4038 7.82946 18.5248 10.2309 17.8754 12.4869L17.8763 12.4898C17.8763 12.973 18.0747 13.361 18.4203 13.5523C18.8548 13.7937 19.4771 13.7015 20.1312 13.2974C20.6127 12.9988 20.9904 12.3309 21.1683 11.4654C21.4703 9.99058 21.2308 7.61238 19.6537 5.36578C18.7191 4.03528 17.4619 2.98891 15.9183 2.25738Z" fill="white"/>
  <path d="M6.16541 1.38238L6.27254 1.60826L6.27256 1.60825L6.16541 1.38238ZM16.3344 1.38238L16.4416 1.15654L16.4415 1.15648L16.3344 1.38238ZM20.4467 4.81109L20.6513 4.66745L20.6513 4.66744L20.4467 4.81109ZM22.1195 11.6617L22.3644 11.712L22.3644 11.7118L22.1195 11.6617ZM20.6429 14.1226L20.5113 13.9101L20.5113 13.9101L20.6429 14.1226ZM17.9486 14.4009L18.0704 14.1826L18.07 14.1824L17.9486 14.4009ZM17.3519 13.8824L17.5508 13.7309L17.3022 13.4045L17.1261 13.7751L17.3519 13.8824ZM16.1664 15.6421L15.9852 15.4699L15.9852 15.4699L16.1664 15.6421ZM11.2474 17.5386L11.2474 17.2886L10.4218 17.2887L11.1088 17.7466L11.2474 17.5386ZM11.2504 17.5406L11.2504 17.7906L12.0761 17.7906L11.389 17.3326L11.2504 17.5406ZM6.33142 15.6441L6.15019 15.8163L6.15023 15.8163L6.33142 15.6441ZM5.12537 13.8433L5.35181 13.7374L5.16921 13.3471L4.92101 13.6993L5.12537 13.8433ZM4.50232 14.4097L4.38062 14.1913L4.38035 14.1915L4.50232 14.4097ZM3.51111 14.6578L3.51108 14.4078L3.26111 14.4078V14.6578H3.51111ZM3.51111 14.6597V14.9097H3.76111V14.6597H3.51111ZM1.85681 14.1246L1.98846 13.912L1.98842 13.912L1.85681 14.1246ZM0.380249 11.6617L0.135324 11.7118L0.13536 11.712L0.380249 11.6617ZM2.05115 4.81109L2.25572 4.95479L2.25576 4.95474L2.05115 4.81109ZM15.9183 2.25738L15.8112 2.48327L15.8113 2.48329L15.9183 2.25738ZM6.58142 2.25738L6.68849 2.48329L6.68853 2.48327L6.58142 2.25738ZM2.84607 5.36578L2.64149 5.22208L2.64145 5.22213L2.84607 5.36578ZM1.33142 11.4654L1.0865 11.5155L1.08654 11.5157L1.33142 11.4654ZM2.36853 13.2974L2.23676 13.5099L2.237 13.51L2.36853 13.2974ZM4.03064 13.5621L4.15222 13.7805L4.15233 13.7805L4.03064 13.5621ZM4.56091 12.4898L4.31091 12.4897V12.4898H4.56091ZM4.58337 12.3502L4.82268 12.4225L4.8435 12.3536L4.82452 12.2842L4.58337 12.3502ZM4.15173 6.68511L4.40142 6.69769L4.40148 6.69634L4.15173 6.68511ZM4.16345 6.42437L4.4132 6.43559L4.41321 6.43547L4.16345 6.42437ZM4.67029 5.96148L4.68134 5.7116L4.67341 5.7115L4.67029 5.96148ZM5.13318 6.46832L5.38285 6.48121L5.38294 6.47924L5.13318 6.46832ZM5.11951 6.73296L4.86984 6.72007L4.86983 6.72027L5.11951 6.73296ZM7.03259 14.9752L7.21389 14.803L7.21382 14.8029L7.03259 14.9752ZM11.2484 16.5689L11.2484 16.8189H11.2484V16.5689ZM15.4652 14.9752L15.6462 15.1476L15.6464 15.1474L15.4652 14.9752ZM17.3783 6.73296L17.628 6.72027L17.628 6.72007L17.3783 6.73296ZM17.3646 6.46832L17.1149 6.47924L17.115 6.48121L17.3646 6.46832ZM17.8275 5.96148L17.826 5.71131L17.8165 5.71172L17.8275 5.96148ZM18.3344 6.42437L18.0846 6.4354L18.0846 6.43568L18.3344 6.42437ZM18.3461 6.68316L18.0963 6.69447L18.0964 6.69574L18.3461 6.68316ZM17.8754 12.4869L17.6351 12.4177L17.6137 12.4923L17.6382 12.5659L17.8754 12.4869ZM17.8763 12.4898H18.1263V12.4492L18.1135 12.4107L17.8763 12.4898ZM18.4203 13.5523L18.5417 13.3338L18.5413 13.3336L18.4203 13.5523ZM20.1312 13.2974L20.2626 13.5101L20.263 13.5099L20.1312 13.2974ZM21.1683 11.4654L21.4132 11.5157L21.4133 11.5155L21.1683 11.4654ZM19.6537 5.36578L19.8583 5.22213L19.8583 5.22208L19.6537 5.36578ZM6.16541 1.38238L6.27256 1.60825C9.3874 0.130595 13.1107 0.13056 16.2272 1.60827L16.3344 1.38238L16.4415 1.15648C13.1893 -0.385494 9.30876 -0.385507 6.05825 1.1565L6.16541 1.38238ZM16.3344 1.38238L16.2271 1.60822C17.8863 2.39596 19.2362 3.52199 20.242 4.95474L20.4467 4.81109L20.6513 4.66744C19.5934 3.16062 18.175 1.97952 16.4416 1.15654L16.3344 1.38238ZM20.4467 4.81109L20.242 4.95473C21.9564 7.39689 22.2034 10.0044 21.8746 11.6116L22.1195 11.6617L22.3644 11.7118C22.7201 9.97342 22.4467 7.22513 20.6513 4.66745L20.4467 4.81109ZM22.1195 11.6617L21.8746 11.6113C21.6481 12.713 21.1512 13.5139 20.5113 13.9101L20.6429 14.1226L20.7746 14.3352C21.5707 13.8422 22.1211 12.8951 22.3644 11.712L22.1195 11.6617ZM20.6429 14.1226L20.5113 13.9101C19.5989 14.4753 18.7175 14.5437 18.0704 14.1826L17.9486 14.4009L17.8268 14.6192C18.6829 15.097 19.7643 14.961 20.7746 14.3351L20.6429 14.1226ZM17.9486 14.4009L18.07 14.1824C17.8661 14.0691 17.6916 13.9157 17.5508 13.7309L17.3519 13.8824L17.153 14.0339C17.3341 14.2716 17.5607 14.4715 17.8272 14.6195L17.9486 14.4009ZM17.3519 13.8824L17.1261 13.7751C16.832 14.3942 16.4598 14.9708 15.9852 15.4699L16.1664 15.6421L16.3476 15.8144C16.8649 15.2704 17.2652 14.6475 17.5777 13.9896L17.3519 13.8824ZM16.1664 15.6421L15.9852 15.4699C14.8451 16.6692 13.2617 17.2886 11.2474 17.2886L11.2474 17.5386L11.2474 17.7886C13.3705 17.7886 15.0952 17.1317 16.3476 15.8144L16.1664 15.6421ZM11.2474 17.5386L11.1088 17.7466L11.1117 17.7486L11.2504 17.5406L11.389 17.3326L11.3861 17.3306L11.2474 17.5386ZM11.2504 17.5406L11.2504 17.2906C9.23609 17.2906 7.65276 16.6711 6.51261 15.4718L6.33142 15.6441L6.15023 15.8163C7.4026 17.1337 9.12732 17.7905 11.2504 17.7906L11.2504 17.5406ZM6.33142 15.6441L6.51265 15.4719C6.02785 14.9617 5.64847 14.3714 5.35181 13.7374L5.12537 13.8433L4.89893 13.9493C5.21433 14.6234 5.62224 15.2607 6.15019 15.8163L6.33142 15.6441ZM5.12537 13.8433L4.92101 13.6993C4.77677 13.904 4.5951 14.0718 4.38062 14.1913L4.50232 14.4097L4.62402 14.6281C4.90864 14.4695 5.14535 14.249 5.32972 13.9873L5.12537 13.8433ZM4.50232 14.4097L4.38035 14.1915C4.19769 14.2936 3.90383 14.4077 3.51108 14.4078L3.51111 14.6578L3.51114 14.9078C4.00377 14.9077 4.38085 14.764 4.62429 14.628L4.50232 14.4097ZM3.51111 14.6578H3.26111V14.6597H3.51111H3.76111V14.6578H3.51111ZM3.51111 14.6597V14.4097C3.11662 14.4097 2.60613 14.2946 1.98846 13.912L1.85681 14.1246L1.72517 14.3371C2.41255 14.7629 3.01315 14.9097 3.51111 14.9097V14.6597ZM1.85681 14.1246L1.98842 13.912C1.34859 13.5159 0.851731 12.7148 0.625138 11.6114L0.380249 11.6617L0.13536 11.712C0.378658 12.8967 0.929011 13.8441 1.72521 14.3371L1.85681 14.1246ZM0.380249 11.6617L0.625174 11.6116C0.296297 10.0043 0.541589 7.39507 2.25572 4.95479L2.05115 4.81109L1.84657 4.66739C0.0510548 7.22353 -0.220328 9.97363 0.135324 11.7118L0.380249 11.6617ZM2.05115 4.81109L2.25576 4.95474C3.26161 3.52201 4.61172 2.396 6.27254 1.60826L6.16541 1.38238L6.05827 1.1565C4.32315 1.97948 2.90443 3.16059 1.84654 4.66744L2.05115 4.81109ZM15.9183 2.25738L16.0254 2.03149C13.0349 0.61345 9.46489 0.61345 6.47431 2.03149L6.58142 2.25738L6.68853 2.48327C9.54353 1.12952 12.9562 1.12952 15.8112 2.48327L15.9183 2.25738ZM6.58142 2.25738L6.47436 2.03146C4.89374 2.78055 3.60215 3.8544 2.64149 5.22208L2.84607 5.36578L3.05065 5.50947C3.95908 4.21614 5.18193 3.19728 6.68849 2.48329L6.58142 2.25738ZM2.84607 5.36578L2.64145 5.22213C1.02457 7.52535 0.770767 9.9737 1.0865 11.5155L1.33142 11.4654L1.57634 11.4152C1.28806 10.0075 1.51327 7.69943 3.05068 5.50942L2.84607 5.36578ZM1.33142 11.4654L1.08654 11.5157C1.27064 12.4115 1.67111 13.1591 2.23676 13.5099L2.36853 13.2974L2.5003 13.085C2.10304 12.8386 1.74798 12.2504 1.5763 11.4151L1.33142 11.4654ZM2.36853 13.2974L2.237 13.51C2.90714 13.9246 3.62015 14.0767 4.15222 13.7805L4.03064 13.5621L3.90906 13.3436C3.61579 13.5068 3.11469 13.465 2.50006 13.0848L2.36853 13.2974ZM4.03064 13.5621L4.15233 13.7805C4.59163 13.5357 4.81091 13.0442 4.81091 12.4898H4.56091H4.31091C4.31091 12.922 4.14414 13.2126 3.90895 13.3437L4.03064 13.5621ZM4.56091 12.4898L4.81091 12.4899C4.81092 12.4721 4.81422 12.4505 4.82268 12.4225L4.58337 12.3502L4.34407 12.2778C4.32573 12.3385 4.31096 12.41 4.31091 12.4897L4.56091 12.4898ZM4.58337 12.3502L4.82452 12.2842C4.23075 10.1125 4.34474 7.82243 4.40142 6.69769L4.15173 6.68511L3.90205 6.67253C3.84556 7.7937 3.72486 10.158 4.34222 12.4161L4.58337 12.3502ZM4.15173 6.68511L4.40148 6.69634L4.4132 6.43559L4.16345 6.42437L3.9137 6.41315L3.90199 6.67389L4.15173 6.68511ZM4.16345 6.42437L4.41321 6.43547C4.41861 6.31387 4.52325 6.20966 4.66716 6.21146L4.67029 5.96148L4.67341 5.7115C4.28056 5.70659 3.932 6.00153 3.9137 6.41327L4.16345 6.42437ZM4.67029 5.96148L4.65924 6.21123C4.78884 6.21697 4.88916 6.32606 4.88342 6.45739L5.13318 6.46832L5.38294 6.47924C5.40068 6.07383 5.08841 5.72973 4.68134 5.71172L4.67029 5.96148ZM5.13318 6.46832L4.88351 6.45542L4.86984 6.72007L5.11951 6.73296L5.36917 6.74586L5.38285 6.48121L5.13318 6.46832ZM5.11951 6.73296L4.86983 6.72027C4.82871 7.52916 4.75224 9.02821 4.96757 10.6208C5.18225 12.2084 5.69152 13.9268 6.85137 15.1474L7.03259 14.9752L7.21382 14.8029C6.1606 13.6946 5.67223 12.1007 5.46307 10.5538C5.25457 9.01183 5.32809 7.5542 5.36918 6.74565L5.11951 6.73296ZM7.03259 14.9752L6.85129 15.1473C7.91395 16.2665 9.40523 16.8188 11.2484 16.8189L11.2484 16.5689L11.2484 16.3189C9.50843 16.3188 8.1611 15.8007 7.21389 14.803L7.03259 14.9752ZM11.2484 16.5689V16.8189C13.0921 16.8189 14.5821 16.2648 15.6462 15.1476L15.4652 14.9752L15.2842 14.8027C14.335 15.7993 12.9883 16.3189 11.2484 16.3189V16.5689ZM15.4652 14.9752L15.6464 15.1474C16.8063 13.9268 17.3156 12.2084 17.5302 10.6208C17.7456 9.02821 17.6691 7.52916 17.628 6.72027L17.3783 6.73296L17.1286 6.74565C17.1697 7.5542 17.2432 9.01183 17.0347 10.5538C16.8256 12.1007 16.3372 13.6946 15.284 14.8029L15.4652 14.9752ZM17.3783 6.73296L17.628 6.72007L17.6143 6.45542L17.3646 6.46832L17.115 6.48121L17.1286 6.74586L17.3783 6.73296ZM17.3646 6.46832L17.6144 6.45739C17.6086 6.32596 17.709 6.21694 17.8385 6.21124L17.8275 5.96148L17.8165 5.71172C17.4093 5.72964 17.0971 6.07385 17.1149 6.47924L17.3646 6.46832ZM17.8275 5.96148L17.8291 6.21147C17.9763 6.21055 18.0792 6.31412 18.0846 6.4354L18.3344 6.42437L18.5841 6.41334C18.5658 5.99792 18.2155 5.70905 17.826 5.71148L17.8275 5.96148ZM18.3344 6.42437L18.0846 6.43568L18.0963 6.69447L18.3461 6.68316L18.5958 6.67185L18.5841 6.41306L18.3344 6.42437ZM18.3461 6.68316L18.0964 6.69574C18.1543 7.84417 18.2716 10.2067 17.6351 12.4177L17.8754 12.4869L18.1156 12.556C18.778 10.2552 18.6534 7.81476 18.5958 6.67058L18.3461 6.68316ZM17.8754 12.4869L17.6382 12.5659L17.6392 12.5689L17.8763 12.4898L18.1135 12.4107L18.1125 12.4078L17.8754 12.4869ZM17.8763 12.4898H17.6263C17.6263 13.0397 17.8549 13.5251 18.2992 13.771L18.4203 13.5523L18.5413 13.3336C18.2944 13.1969 18.1263 12.9063 18.1263 12.4898H17.8763ZM18.4203 13.5523L18.2989 13.7708C18.85 14.077 19.5767 13.9339 20.2626 13.5101L20.1312 13.2974L19.9998 13.0847C19.3775 13.4692 18.8596 13.5104 18.5417 13.3338L18.4203 13.5523ZM20.1312 13.2974L20.263 13.5099C20.8286 13.159 21.2291 12.4115 21.4132 11.5157L21.1683 11.4654L20.9235 11.4151C20.7518 12.2504 20.3967 12.8386 19.9995 13.085L20.1312 13.2974ZM21.1683 11.4654L21.4133 11.5155C21.729 9.9737 21.4752 7.52534 19.8583 5.22213L19.6537 5.36578L19.4491 5.50942C20.9865 7.69942 21.2117 10.0075 20.9234 11.4152L21.1683 11.4654ZM19.6537 5.36578L19.8583 5.22208C18.8976 3.85441 17.606 2.78055 16.0254 2.03146L15.9183 2.25738L15.8113 2.48329C17.3178 3.19728 18.5407 4.21614 19.4491 5.50947L19.6537 5.36578Z" fill="white"/>
  <path d="M8.43879 6.27867C8.99919 6.46491 9.2861 7.12094 9.07972 7.7451C8.87335 8.36925 8.25087 8.72495 7.69048 8.53871C7.13008 8.35247 6.84317 7.69644 7.04954 7.07228C7.25592 6.44813 7.87839 6.09243 8.43879 6.27867Z" fill="white"/>
  <path d="M14.0617 6.27866C13.5013 6.4649 13.2144 7.12093 13.4207 7.74509C13.6271 8.36924 14.2496 8.72494 14.81 8.5387C15.3704 8.35246 15.6573 7.69643 15.4509 7.07228C15.2445 6.44812 14.6221 6.09242 14.0617 6.27866Z" fill="white"/>
  <path d="M11.2505 9.97659C10.3764 9.97659 9.67 10.2182 9.67 10.6997C9.67 11.3423 10.378 11.9866 11.2505 11.9866C12.123 11.9866 12.831 11.344 12.831 10.6997C12.831 10.2165 12.123 9.97659 11.2505 9.97659Z" fill="white"/>
  <path d="M9.57912 14.3391C8.52544 14.3391 7.85262 13.5639 7.71169 12.9415C7.65128 12.6797 7.81572 12.4197 8.07746 12.3609C8.33752 12.3005 8.59926 12.465 8.65799 12.7267C8.71 12.9499 9.09422 13.5102 9.88281 13.3341C10.7888 13.1311 10.7351 11.8693 10.7351 11.8576C10.7217 11.5908 10.9281 11.3626 11.1949 11.3475C11.46 11.3391 11.6898 11.5405 11.7049 11.8072C11.7419 12.5304 11.4533 13.9767 10.0959 14.2804C9.91637 14.3206 9.74355 14.3391 9.5808 14.3391H9.57912Z" fill="white"/>
  <path d="M12.9199 14.3391C12.7571 14.3391 12.586 14.3206 12.4048 14.2803C11.0474 13.9766 10.7588 12.5304 10.7957 11.8072C10.8091 11.5404 11.044 11.3391 11.3058 11.3475C11.5742 11.3609 11.7789 11.5891 11.7655 11.8575C11.7638 11.9079 11.7202 13.1327 12.6179 13.334C13.4048 13.5102 13.7907 12.9498 13.8427 12.7267C13.9031 12.4649 14.1615 12.3005 14.4232 12.3626C14.6849 12.423 14.8477 12.683 14.7873 12.9431C14.6447 13.5656 13.9719 14.3391 12.9199 14.3391Z" fill="white"/>
</svg>