<svg xmlns="http://www.w3.org/2000/svg" width="25" height="25" viewBox="0 0 25 25" fill="none">
  <mask id="mask0_75_1504" style="mask-type:luminance" maskUnits="userSpaceOnUse" x="0" y="0" width="25" height="25">
    <path d="M0 1.90735e-06H25V25H0V1.90735e-06Z" fill="white"/>
  </mask>
  <g mask="url(#mask0_75_1504)">
    <path d="M13.7065 8.08301C14.4478 6.77393 15.7525 5.82568 17.2913 5.56782" stroke="#101C38" stroke-width="0.732422" stroke-miterlimit="10" stroke-linecap="round" stroke-linejoin="round"/>
    <path d="M17.2915 13.1084V9.35493" stroke="#101C38" stroke-width="0.732422" stroke-miterlimit="10" stroke-linecap="round" stroke-linejoin="round"/>
    <path d="M12.0591 7.79688C12.4835 5.41353 14.5667 3.60342 17.0729 3.60342H17.2914V6.58364" stroke="#101C38" stroke-width="0.732422" stroke-miterlimit="10" stroke-linecap="round" stroke-linejoin="round"/>
    <path d="M14.6821 22.3667C16.2441 21.4424 17.2915 19.7402 17.2915 17.7935V13.1079C17.2915 10.1743 14.9135 7.79639 11.9799 7.79639H8.54687C5.61328 7.79639 3.23486 10.1743 3.23486 13.1079V17.7935C3.23486 20.7271 5.61328 23.1055 8.54687 23.1055H11.9799C12.4472 23.1055 12.9004 23.0449 13.332 22.9312" stroke="#101C38" stroke-width="0.732422" stroke-miterlimit="10" stroke-linecap="round" stroke-linejoin="round"/>
    <path d="M3.23486 13.1084V3.60376H3.45356C5.95957 3.60376 8.04292 5.41392 8.46743 7.79741" stroke="#101C38" stroke-width="0.732422" stroke-miterlimit="10" stroke-linecap="round" stroke-linejoin="round"/>
    <path d="M6.81982 8.08398C6.55229 7.61182 6.21094 7.18604 5.81201 6.82324" stroke="#101C38" stroke-width="0.732422" stroke-miterlimit="10" stroke-linecap="round" stroke-linejoin="round"/>
    <path d="M4.60303 6.00391C4.17681 5.79736 3.71729 5.64893 3.23486 5.56787" stroke="#101C38" stroke-width="0.732422" stroke-miterlimit="10" stroke-linecap="round" stroke-linejoin="round"/>
    <path d="M12.4635 19.8975C11.2484 19.8975 10.2634 18.9125 10.2634 17.6975C10.2634 18.9125 9.27847 19.8975 8.06348 19.8975" stroke="#101C38" stroke-width="0.732422" stroke-miterlimit="10" stroke-linecap="round" stroke-linejoin="round"/>
    <path d="M10.9271 15.8232H9.59961C9.08213 15.8232 8.6626 16.2427 8.6626 16.7602C8.6626 17.2777 9.08213 17.6973 9.59961 17.6973H10.9271C11.4446 17.6973 11.8641 17.2777 11.8641 16.7602C11.8641 16.2427 11.4446 15.8232 10.9271 15.8232Z" stroke="#101C38" stroke-width="0.732422" stroke-miterlimit="10" stroke-linecap="round" stroke-linejoin="round"/>
    <path d="M7.49888 15.5792C7.49888 16.2318 7.17056 16.7607 6.76553 16.7607C6.36055 16.7607 6.03223 16.2318 6.03223 15.5792C6.03223 14.9268 6.36055 14.3978 6.76553 14.3978C7.17056 14.3978 7.49888 14.9268 7.49888 15.5792Z" fill="#101C38"/>
    <path d="M7.49888 15.5792C7.49888 16.2318 7.17056 16.7607 6.76553 16.7607C6.36055 16.7607 6.03223 16.2318 6.03223 15.5792C6.03223 14.9268 6.36055 14.3978 6.76553 14.3978C7.17056 14.3978 7.49888 14.9268 7.49888 15.5792Z" stroke="#101C38" stroke-width="0.012207" stroke-miterlimit="10"/>
    <path d="M14.4945 15.5792C14.4945 16.2318 14.1662 16.7607 13.7611 16.7607C13.3562 16.7607 13.0278 16.2318 13.0278 15.5792C13.0278 14.9268 13.3562 14.3978 13.7611 14.3978C14.1662 14.3978 14.4945 14.9268 14.4945 15.5792Z" fill="#101C38"/>
    <path d="M14.4945 15.5792C14.4945 16.2318 14.1662 16.7607 13.7611 16.7607C13.3562 16.7607 13.0278 16.2318 13.0278 15.5792C13.0278 14.9268 13.3562 14.3978 13.7611 14.3978C14.1662 14.3978 14.4945 14.9268 14.4945 15.5792Z" stroke="#101C38" stroke-width="0.012207" stroke-miterlimit="10"/>
    <path d="M14.2119 18.2266L20.1601 17.4932" stroke="#101C38" stroke-width="0.732422" stroke-miterlimit="10" stroke-linecap="round" stroke-linejoin="round"/>
    <path d="M14.1304 19.856L18.5304 21.2412" stroke="#101C38" stroke-width="0.732422" stroke-miterlimit="10" stroke-linecap="round" stroke-linejoin="round"/>
    <path d="M6.31436 18.2266L0.366211 17.4932" stroke="#101C38" stroke-width="0.732422" stroke-miterlimit="10" stroke-linecap="round" stroke-linejoin="round"/>
    <path d="M6.39609 19.856L1.99609 21.2412" stroke="#101C38" stroke-width="0.732422" stroke-miterlimit="10" stroke-linecap="round" stroke-linejoin="round"/>
    <path d="M17.3024 9.36635L16.4539 8.51791C16.0115 8.07538 16.0115 7.35785 16.4539 6.91532C16.8965 6.47279 17.614 6.47279 18.0565 6.91532L18.905 7.76376C19.3475 8.20629 19.3475 8.92382 18.905 9.36635C18.4624 9.80887 17.7449 9.80887 17.3024 9.36635Z" stroke="#101C38" stroke-width="0.732422" stroke-miterlimit="10" stroke-linecap="round" stroke-linejoin="round"/>
    <path d="M22.6994 14.7628L21.8509 13.9144C21.4084 13.4719 21.4084 12.7544 21.8509 12.3119C22.2935 11.8693 23.011 11.8693 23.4535 12.3119L24.3019 13.1602C24.7445 13.6028 24.7445 14.3203 24.3019 14.7628C23.8594 15.2054 23.1419 15.2054 22.6994 14.7628Z" stroke="#101C38" stroke-width="0.732422" stroke-miterlimit="10" stroke-linecap="round" stroke-linejoin="round"/>
    <path d="M18.9048 9.36558L21.8507 12.3115" stroke="#101C38" stroke-width="0.732422" stroke-miterlimit="10" stroke-linecap="round" stroke-linejoin="round"/>
    <path d="M19.2129 4.00989L19.2955 4.05467C19.5872 4.21258 19.9513 4.11775 20.1288 3.83762L20.6748 2.97595C20.8704 2.66731 20.7637 2.2576 20.4424 2.08362L20.237 1.97234C19.9157 1.79832 19.5142 1.93284 19.3625 2.26531L18.9393 3.19348C18.8017 3.49519 18.9212 3.85198 19.2129 4.00989Z" stroke="#101C38" stroke-width="0.732422" stroke-miterlimit="10" stroke-linecap="round" stroke-linejoin="round"/>
    <path d="M20.9312 5.66115L20.9805 5.74128C21.1541 6.02385 21.5168 6.12375 21.8106 5.96994L22.7143 5.4967C23.038 5.32722 23.1504 4.91901 22.9592 4.60769L22.8369 4.40861C22.6456 4.09724 22.2307 4.01301 21.9332 4.22512L21.1026 4.81731C20.8326 5.00984 20.7577 5.37859 20.9312 5.66115Z" stroke="#101C38" stroke-width="0.732422" stroke-miterlimit="10" stroke-linecap="round" stroke-linejoin="round"/>
    <path d="M21.679 7.92514L21.6815 8.01913C21.6905 8.35063 21.9547 8.61855 22.2861 8.63222L23.3054 8.67426C23.6704 8.6893 23.9719 8.39203 23.9619 8.0268L23.9555 7.7932C23.9456 7.42797 23.6284 7.14755 23.2646 7.18251L22.2492 7.28002C21.9191 7.31171 21.6699 7.59359 21.679 7.92514Z" stroke="#101C38" stroke-width="0.732422" stroke-miterlimit="10" stroke-linecap="round" stroke-linejoin="round"/>
  </g>
</svg>