<svg xmlns="http://www.w3.org/2000/svg" width="35" height="31" viewBox="0 0 35 31" fill="none">
  <path d="M17.25 12.9387C11.9251 12.9387 4.31042 21.2057 4.31042 26.4375C4.31042 28.7804 6.12091 30.1915 9.14281 30.1915C12.431 30.1915 14.6142 28.5009 17.25 28.5009C19.8859 28.5009 22.0957 30.1915 25.3573 30.1915C28.3792 30.1915 30.1897 28.7804 30.1897 26.4375C30.1897 21.2057 22.575 12.9387 17.25 12.9387Z" fill="white"/>
  <path d="M7.31852 12.0875C7.07894 11.0259 6.45269 10.0915 5.56181 9.4664C4.67093 8.84131 3.57924 8.57029 2.49944 8.70615C0.542527 9.18539 -0.482524 11.4485 0.223031 13.7915C0.462611 14.8531 1.08885 15.7875 1.97973 16.4126C2.87062 17.0376 3.96231 17.3087 5.0421 17.1728C6.99902 16.6936 8.02408 14.4305 7.31852 12.0875Z" fill="white"/>
  <path d="M13.0295 10.6894C15.1196 10.1436 16.1579 7.32141 15.3592 4.39269C14.5604 1.46397 12.2308 -0.453007 10.1407 0.0927998C8.0507 0.638607 7.01234 3.46083 7.81108 6.38955C8.60982 9.31826 10.9528 11.2352 13.0295 10.6894Z" fill="white"/>
  <path d="M31.9996 8.70615C30.9198 8.57029 29.8281 8.84131 28.9373 9.4664C28.0464 10.0915 27.4201 11.0259 27.1806 12.0875C26.475 14.4305 27.5 16.6936 29.457 17.1728C30.5405 17.3077 31.6353 17.033 32.5268 16.4025C33.4183 15.7721 34.0421 14.8314 34.276 13.7648C34.9816 11.4219 33.9565 9.15877 31.9996 8.67952V8.70615Z" fill="white"/>
  <path d="M21.47 10.6889C23.5467 11.2347 25.8897 9.35766 26.6884 6.389C27.4872 3.42035 26.4355 0.638065 24.3588 0.0922578C22.282 -0.453549 19.9124 1.47674 19.1403 4.4454C18.3682 7.41406 19.3799 10.1431 21.47 10.6889Z" fill="white"/>
</svg>