<svg xmlns="http://www.w3.org/2000/svg" width="24" height="24" viewBox="0 0 24 24" fill="none">
  <g clip-path="url(#clip0_75_1478)">
    <path d="M7.84887 6.80981C8.46872 6.80981 9.05065 6.56867 9.4886 6.13128C10.3924 5.22744 10.3924 3.7562 9.4886 2.85237C9.05065 2.41441 8.46834 2.17383 7.84887 2.17383C7.22939 2.17383 6.64708 2.41479 6.20913 2.85237C5.30529 3.75658 5.30529 5.22744 6.20913 6.13128C6.64671 6.56867 7.22901 6.80981 7.84887 6.80981ZM6.75558 3.39844C7.0473 3.10654 7.43582 2.94615 7.84887 2.94615C8.26191 2.94615 8.65024 3.10691 8.94215 3.39844C9.54502 4.00132 9.54502 4.98195 8.94215 5.58445C8.35852 6.16807 7.33921 6.16807 6.75558 5.58445C6.15271 4.98195 6.15271 4.00132 6.75558 3.39844Z" fill="#101C38"/>
    <path d="M3.4776 12.3409C4.40654 12.3409 5.27999 11.9788 5.93646 11.3223C6.3229 10.9359 6.60462 10.4728 6.77312 9.9694L11.1364 14.3331C11.14 14.3369 11.1412 14.3416 11.1446 14.3454C11.1481 14.3493 11.153 14.3505 11.157 14.3535L11.8676 15.0643L5.32981 21.604C5.32981 21.604 5.32981 21.6044 5.32943 21.6044C4.95299 21.9808 4.95261 22.5933 5.32868 22.9694C5.51152 23.1524 5.75418 23.253 6.01269 23.253C6.27082 23.253 6.5131 23.1524 6.69594 22.9701C6.69594 22.9698 6.69632 22.9698 6.69632 22.9698L6.6967 22.9694L13.2338 16.4295L18.9279 22.1237C18.9291 22.125 18.931 22.1254 18.9323 22.1265C18.9368 22.1318 18.9383 22.138 18.943 22.1431C19.4265 22.6269 20.0374 22.8765 20.7115 22.8765C20.9611 22.8765 21.2192 22.8422 21.483 22.7726C21.6176 22.7371 21.7227 22.6324 21.7583 22.4975C22.0157 21.5229 21.7919 20.6205 21.1287 19.9569C21.1256 19.9539 21.1213 19.9527 21.1183 19.9499C21.1153 19.9465 21.1145 19.9424 21.1113 19.9395L15.4167 14.2454L23.5266 6.13159C23.5328 6.12611 23.5405 6.12423 23.5464 6.11838C23.8388 5.82628 24 5.43795 24 5.02491C24.0004 4.61167 23.8392 4.22296 23.5464 3.93049C23.5424 3.9269 23.5379 3.92577 23.5343 3.92237L20.543 0.926692C20.4675 0.850838 20.3682 0.813477 20.2694 0.813477C20.2303 0.813477 20.1924 0.823855 20.1544 0.835742C20.1448 0.83895 20.1337 0.837818 20.1241 0.841969C20.1186 0.843856 20.115 0.848951 20.1101 0.851215C20.0691 0.869896 20.0297 0.892916 19.9961 0.926692C19.9961 0.926692 19.9961 0.927069 19.9957 0.927069L19.1742 1.74864C19.023 1.89959 19.023 2.14395 19.1742 2.29509L21.9036 5.02415L21.6304 5.29719L18.9006 2.56775C18.7494 2.4168 18.5053 2.4168 18.3541 2.56775C18.203 2.71889 18.203 2.96363 18.3541 3.1142L21.0839 5.84364L20.8107 6.11725L18.0809 3.38781C17.9298 3.23685 17.6856 3.23685 17.5344 3.38781C17.3833 3.53895 17.3833 3.7835 17.5344 3.93426L20.2643 6.6637L19.9907 6.9373L17.2612 4.20787C17.1101 4.05672 16.8659 4.05672 16.7148 4.20787C16.5636 4.35901 16.5636 4.60318 16.7148 4.75432L19.4442 7.48376L19.1706 7.75736L16.4412 5.02717C16.29 4.87603 16.0458 4.87603 15.8947 5.02717C15.7437 5.17793 15.7437 5.42248 15.8947 5.57362L18.6241 8.30382L18.3509 8.57704L15.6211 5.8476C15.4701 5.69646 15.2258 5.69646 15.0746 5.8476C14.9237 5.99875 14.9237 6.24329 15.0746 6.39406L17.8046 9.1235L17.5314 9.3971L14.8014 6.66766C14.6505 6.51652 14.4061 6.51652 14.2552 6.66766C14.104 6.81862 14.104 7.06335 14.2552 7.21412L16.985 9.94355L16.7117 10.2172L13.9819 7.48715C13.8308 7.3362 13.5866 7.3362 13.4355 7.48715C13.2843 7.6383 13.2843 7.88265 13.4355 8.03361L16.1653 10.7634L15.8921 11.0366L13.1634 8.30721L13.1626 8.30646C13.0115 8.15531 12.7673 8.15531 12.6162 8.30646C12.6135 8.30929 12.6128 8.31268 12.6099 8.31533C12.0152 8.91895 12.0165 9.89317 12.6162 10.4938L14.5284 12.405L14.0525 12.8811L8.95818 7.78642C9.46085 7.61754 9.92259 7.33695 10.3083 6.95127C11.664 5.59513 11.664 3.38856 10.3083 2.03262C9.65143 1.37559 8.7776 1.01387 7.84904 1.01387C6.92049 1.01387 6.04665 1.37559 5.38962 2.03262C4.43937 2.98325 4.15765 4.35127 4.54032 5.55192C4.20105 5.4438 3.84442 5.38531 3.47798 5.38531C2.54905 5.38531 1.67559 5.74703 1.01913 6.40406C0.362101 7.06109 0 7.93436 0 8.86329C0 9.79241 0.362101 10.6657 1.01913 11.3227C1.67521 11.9792 2.54867 12.3409 3.4776 12.3409ZM11.42 13.5231L6.94672 9.04972C6.94973 8.98745 6.95558 8.92556 6.95558 8.86291C6.95558 8.7397 6.94785 8.61723 6.93539 8.49628L11.6914 13.2517L11.42 13.5231ZM6.14949 22.4233C6.10005 22.4727 6.0425 22.4801 6.01269 22.4801C5.98287 22.4801 5.92495 22.4724 5.87589 22.4237C5.80097 22.3482 5.80097 22.2257 5.87589 22.1508C5.87589 22.1508 5.87589 22.1508 5.87589 22.1504H5.87626L12.4145 15.6106L12.6869 15.883L6.14949 22.4233ZM13.1622 9.94619C12.9609 9.74486 12.8971 9.45918 12.9654 9.20143L15.6181 11.8548C15.6934 11.9301 15.7924 11.968 15.8913 11.968C15.9902 11.968 16.0891 11.9301 16.1645 11.8548L16.9829 11.0363C16.9835 11.0359 16.9838 11.0359 16.9842 11.0355C16.9846 11.0351 16.9846 11.0348 16.985 11.0344L20.2616 7.75774C20.2624 7.75698 20.2631 7.75698 20.2639 7.75623C20.2646 7.75547 20.2646 7.75472 20.2654 7.75397L21.0824 6.93693C21.0828 6.93655 21.0832 6.93655 21.0836 6.93617C21.0839 6.93579 21.0839 6.93542 21.0843 6.93504L22.7227 5.29643C22.8739 5.14548 22.8739 4.90112 22.7227 4.74998L19.9933 2.02111L20.2686 1.74581L22.9971 4.47845C22.9999 4.48072 23.0033 4.48147 23.0058 4.48411C23.1482 4.62997 23.2267 4.82112 23.2267 5.02453C23.2267 5.22624 23.1486 5.4155 23.0088 5.56041C23.0048 5.564 22.9999 5.56513 22.996 5.56891L14.8703 13.6989L14.5986 13.4268L15.343 12.6819C15.3824 12.6424 15.4101 12.5968 15.429 12.5485C15.4868 12.4086 15.4592 12.2416 15.3452 12.128L13.1622 9.94619ZM14.5967 14.5182C14.5971 14.5182 14.5971 14.5186 14.5967 14.5182C14.5971 14.5186 14.5974 14.5186 14.5974 14.519L20.5648 20.4864C20.5681 20.4894 20.5722 20.4907 20.5754 20.4934C20.5784 20.4967 20.5792 20.5011 20.5824 20.5037C21.0873 21.0092 21.1377 21.604 21.0596 22.0742C20.5892 22.1516 19.9946 22.1021 19.4895 21.5966C19.4884 21.5955 19.4863 21.5951 19.4851 21.594C19.4806 21.5885 19.4789 21.5823 19.4744 21.5774L11.9665 14.0699L12.4926 13.5444C12.4996 13.5381 12.5084 13.5363 12.5148 13.5293C12.666 13.3781 12.666 13.134 12.5148 12.9828L7.48222 7.94983C7.60318 7.96266 7.72583 7.96983 7.84904 7.96983C7.9132 7.96983 7.97622 7.96417 8.03962 7.96058L14.5967 14.5182ZM5.93608 2.57907C6.44706 2.06809 7.12635 1.78675 7.84904 1.78675C8.57174 1.78675 9.25103 2.06809 9.76201 2.57907C10.8166 3.63368 10.8166 5.34983 9.76201 6.40444C9.25103 6.91523 8.57174 7.19657 7.84904 7.19657C7.13031 7.19657 6.45442 6.91768 5.94419 6.4118C5.94155 6.40915 5.93929 6.40632 5.93646 6.40368C5.93381 6.40104 5.93117 6.39896 5.92834 6.39632C4.88185 5.34134 4.88431 3.63141 5.93608 2.57907ZM1.56502 6.95051C2.07562 6.43953 2.75491 6.15819 3.4776 6.15819C4.19671 6.15819 4.87223 6.43727 5.38245 6.94315C5.3851 6.94542 5.38698 6.94863 5.38962 6.95127C5.39246 6.95391 5.39547 6.9558 5.39774 6.95863C5.90362 7.46866 6.1827 8.14456 6.1827 8.86329C6.1827 9.58598 5.90098 10.2651 5.39019 10.7763C4.87959 11.287 4.2003 11.5684 3.4776 11.5684C2.75491 11.5684 2.07562 11.2867 1.56502 10.7763C1.05423 10.2655 0.772507 9.58598 0.772507 8.86329C0.772507 8.14078 1.05423 7.4613 1.56502 6.95051Z" fill="#101C38"/>
    <path d="M3.47739 11.1811C4.09725 11.1811 4.6788 10.9399 5.11676 10.5026C6.02059 9.59872 6.02059 8.12749 5.11676 7.22365C4.6788 6.78569 4.09687 6.54492 3.47739 6.54492C2.85792 6.54492 2.27599 6.78607 1.83803 7.22365C0.934197 8.12786 0.934197 9.59872 1.83803 10.5026C2.27599 10.9403 2.85792 11.1811 3.47739 11.1811ZM2.38449 7.7701C2.67621 7.4782 3.06435 7.31781 3.47739 7.31781C3.89044 7.31781 4.27839 7.47857 4.5703 7.7701C5.17317 8.37279 5.17317 9.35361 4.5703 9.95611C3.98668 10.5397 2.96811 10.5397 2.38449 9.95611C1.78199 9.35323 1.78199 8.37279 2.38449 7.7701Z" fill="#101C38"/>
    <path d="M13.3468 14.7358C13.56 14.7358 13.7333 14.5629 13.7333 14.3493C13.7333 14.1355 13.56 13.9629 13.3468 13.9629H13.3425C13.1293 13.9629 12.9585 14.1355 12.9585 14.3493C12.9585 14.5629 13.1334 14.7358 13.3468 14.7358Z" fill="#101C38"/>
  </g>
  <defs>
    <clipPath id="clip0_75_1478">
      <rect width="24" height="24" fill="white"/>
    </clipPath>
  </defs>
</svg>