<svg xmlns="http://www.w3.org/2000/svg" width="10" height="10" viewBox="0 0 10 10" fill="none">
  <g clip-path="url(#clip0_51_2176)">
    <path d="M4.80007 2.40039C4.48362 2.40039 4.17428 2.49423 3.91116 2.67004C3.64804 2.84585 3.44297 3.09574 3.32187 3.3881C3.20077 3.68046 3.16908 4.00217 3.23082 4.31254C3.29255 4.6229 3.44494 4.908 3.6687 5.13176C3.89247 5.35553 4.17756 5.50791 4.48793 5.56965C4.7983 5.63138 5.12001 5.5997 5.41237 5.4786C5.70473 5.3575 5.95462 5.15242 6.13043 4.8893C6.30624 4.62618 6.40007 4.31684 6.40007 4.00039C6.40007 3.57604 6.2315 3.16908 5.93145 2.86902C5.63139 2.56896 5.22442 2.40039 4.80007 2.40039ZM4.80007 4.80039C4.64185 4.80039 4.48718 4.75347 4.35562 4.66557C4.22406 4.57766 4.12152 4.45272 4.06097 4.30654C4.00042 4.16036 3.98458 3.9995 4.01545 3.84432C4.04631 3.68913 4.12251 3.54659 4.23439 3.43471C4.34627 3.32282 4.48882 3.24663 4.644 3.21576C4.79919 3.18489 4.96004 3.20074 5.10622 3.26129C5.2524 3.32184 5.37734 3.42438 5.46525 3.55593C5.55315 3.68749 5.60007 3.84217 5.60007 4.00039C5.60007 4.21256 5.51579 4.41605 5.36576 4.56608C5.21573 4.7161 5.01225 4.80039 4.80007 4.80039Z" fill="white"/>
    <path d="M4.79995 9.59982C4.46313 9.60155 4.1308 9.52255 3.83078 9.36944C3.53076 9.21634 3.27179 8.99358 3.07555 8.71982C1.55115 6.61702 0.777954 5.03622 0.777954 4.02102C0.777954 2.95432 1.2017 1.93131 1.95597 1.17704C2.71024 0.422769 3.73325 -0.000976562 4.79995 -0.000976562C5.86665 -0.000976562 6.88967 0.422769 7.64394 1.17704C8.39821 1.93131 8.82195 2.95432 8.82195 4.02102C8.82195 5.03622 8.04875 6.61702 6.52435 8.71982C6.32812 8.99358 6.06915 9.21634 5.76913 9.36944C5.46911 9.52255 5.13678 9.60155 4.79995 9.59982ZM4.79995 0.872223C3.96492 0.873176 3.16436 1.20531 2.5739 1.79577C1.98344 2.38623 1.65131 3.18679 1.65035 4.02182C1.65035 4.82582 2.40755 6.31262 3.78195 8.20822C3.89863 8.36893 4.0517 8.49974 4.22864 8.58993C4.40558 8.68012 4.60135 8.72714 4.79995 8.72714C4.99855 8.72714 5.19433 8.68012 5.37127 8.58993C5.54821 8.49974 5.70128 8.36893 5.81795 8.20822C7.19235 6.31262 7.94955 4.82582 7.94955 4.02182C7.9486 3.18679 7.61646 2.38623 7.02601 1.79577C6.43555 1.20531 5.63499 0.873176 4.79995 0.872223Z" fill="white"/>
  </g>
  <defs>
    <clipPath id="clip0_51_2176">
      <rect width="9.6" height="9.6" fill="white"/>
    </clipPath>
  </defs>
</svg>