<svg xmlns="http://www.w3.org/2000/svg" width="27" height="27" viewBox="0 0 27 27" fill="none">
  <path d="M4.19839 18.9954C4.19628 19.0059 4.19417 19.0182 4.1929 19.03C4.17687 19.1511 4.09629 19.2915 3.95665 19.3143C2.68512 19.5206 1.71565 20.5618 1.59964 21.8464C1.47012 23.2745 2.47208 24.6025 3.88072 24.8704C4.67426 25.021 5.49312 24.8261 6.131 24.3346C6.1909 24.2895 6.26557 24.2688 6.34531 24.2802C6.42378 24.2903 6.4917 24.3287 6.53684 24.3882C7.02495 25.0282 7.76618 25.4298 8.5707 25.4906C8.63989 25.4961 8.70908 25.4986 8.77742 25.4986C10.1245 25.4986 11.3247 24.508 11.5601 23.1639C11.7816 21.8924 11.1159 20.6352 9.94179 20.1062C9.83042 20.056 9.76714 19.9244 9.78654 19.7864C9.82156 19.5367 9.82114 19.2823 9.78486 19.0296C9.59754 17.7243 8.52598 16.6945 7.23758 16.581C5.73148 16.4511 4.39287 17.5205 4.19839 18.9954ZM8.94997 19.1498C8.97528 19.3232 8.9757 19.4978 8.95165 19.6683C8.88036 20.175 9.14487 20.6715 9.59501 20.8748C10.4181 21.2457 10.8847 22.127 10.729 23.0184C10.5565 24.0081 9.64564 24.7287 8.6344 24.6489C8.06993 24.6059 7.55018 24.3241 7.20804 23.8765C7.02579 23.6377 6.75917 23.4833 6.45668 23.4432C6.40479 23.4365 6.35332 23.4331 6.30186 23.4331C6.05337 23.4331 5.81459 23.5133 5.61673 23.666C5.16997 24.0094 4.59622 24.1486 4.0385 24.0414C3.05173 23.8541 2.34973 22.923 2.44043 21.9224C2.52186 21.0217 3.20108 20.2918 4.0925 20.1475C4.58483 20.0674 4.96198 19.662 5.02948 19.1388C5.02948 19.1371 5.03032 19.1355 5.03032 19.1333C5.16997 18.0799 6.10822 17.3265 7.16417 17.4214C8.06698 17.5007 8.81792 18.2276 8.94997 19.1498Z" fill="#101C38"/>
  <path d="M2.26626 18.7897C2.42193 18.8323 2.58014 18.8525 2.7375 18.8525C3.04758 18.8525 3.35386 18.7715 3.62976 18.6129C4.4887 18.1197 4.78654 17.019 4.29295 16.1597C3.87403 15.4311 2.52951 14.3174 1.56131 14.8742C1.13226 15.1206 0.878716 15.6505 0.846654 16.366C0.820497 16.944 0.94706 17.551 1.17656 17.9501C1.41534 18.3661 1.8022 18.6644 2.26584 18.7897H2.26626ZM1.98234 15.6058C2.02537 15.5805 2.08022 15.5686 2.14434 15.5686C2.30086 15.5686 2.51179 15.6412 2.73623 15.7766C3.06951 15.9787 3.40111 16.301 3.56142 16.5795C3.82298 17.0355 3.6652 17.6194 3.20958 17.8809C2.98851 18.0083 2.73159 18.0404 2.48606 17.975C2.24053 17.9088 2.0355 17.7506 1.90851 17.5295C1.75917 17.2696 1.67142 16.8174 1.68956 16.4035C1.70728 16.0103 1.82161 15.6973 1.98192 15.6053L1.98234 15.6058Z" fill="#101C38"/>
  <path d="M4.33441 13.2368C4.14499 13.7831 4.0931 14.4012 4.19941 14.8492C4.30994 15.3162 4.59555 15.7123 5.00435 15.9646C5.29165 16.1418 5.61522 16.2334 5.94471 16.2334C6.08351 16.2334 6.22357 16.2169 6.36194 16.184C6.82896 16.0735 7.2251 15.7879 7.47738 15.3795C7.72966 14.9707 7.80729 14.4889 7.69676 14.0215C7.50311 13.2039 6.52858 11.7526 5.44521 12.0108C4.96385 12.1247 4.5694 12.5601 4.33441 13.2368ZM5.63927 12.8314C5.65994 12.8267 5.68146 12.8242 5.70297 12.8242C6.10755 12.8242 6.73446 13.6211 6.87537 14.2155C6.93401 14.4632 6.89266 14.7188 6.75893 14.9357C6.62562 15.1525 6.41552 15.304 6.16746 15.363C5.91771 15.4212 5.66374 15.3799 5.44732 15.2466C5.23047 15.1133 5.07902 14.9028 5.01996 14.6551C4.88074 14.0662 5.20938 12.933 5.63927 12.8314Z" fill="#101C38"/>
  <path d="M14.1579 18.1273C14.3131 17.4282 14.2055 16.8507 13.8558 16.5013C13.5014 16.147 12.9323 16.0613 12.2531 16.2567C11.7376 16.4056 11.2132 16.7026 10.8841 17.0316C10.5449 17.3717 10.3585 17.8231 10.3589 18.3032C10.3593 18.7833 10.5462 19.2343 10.8858 19.5734C11.2254 19.9122 11.6764 20.0987 12.1561 20.0987H12.1573C12.6374 20.0987 13.0884 19.9114 13.4276 19.5718C13.7529 19.2456 14.033 18.6921 14.1579 18.1273ZM13.3344 17.9446C13.2445 18.3487 13.0424 18.7626 12.8302 18.9748C12.6505 19.1554 12.4113 19.2545 12.1565 19.2545C11.9017 19.2545 11.6629 19.1558 11.4828 18.9756C11.3022 18.7959 11.2031 18.5567 11.2031 18.3019C11.2031 18.0471 11.3018 17.8079 11.4819 17.6278C11.7089 17.4004 12.1126 17.1751 12.4872 17.0671C12.648 17.0207 12.7961 16.9979 12.9222 16.9979C13.0741 16.9979 13.1935 17.0312 13.2601 17.0979C13.3905 17.2282 13.4196 17.5603 13.3348 17.9442L13.3344 17.9446Z" fill="#101C38"/>
  <path d="M9.73179 16.7347C9.90434 16.7347 10.0777 16.7094 10.2477 16.6588C10.7076 16.5217 11.0869 16.2133 11.3151 15.791C11.5345 15.386 11.6446 14.776 11.6041 14.1988C11.553 13.4846 11.2856 12.9611 10.8506 12.7261C10.4106 12.489 9.83979 12.5675 9.24453 12.9488C8.79312 13.2382 8.37504 13.6723 8.15356 14.0824C7.68232 14.9536 8.00759 16.0458 8.87961 16.5175C9.14581 16.6613 9.4369 16.7347 9.73179 16.7347ZM8.89606 14.4836C9.04836 14.201 9.37193 13.8698 9.69973 13.6593C9.9267 13.5137 10.141 13.4357 10.2992 13.4357C10.3579 13.4357 10.4085 13.4462 10.449 13.4686C10.6114 13.5563 10.7342 13.8664 10.762 14.2592C10.7911 14.6722 10.7152 15.1265 10.5726 15.3902C10.4515 15.6142 10.2503 15.7779 10.0064 15.8505C9.76175 15.9239 9.5044 15.8969 9.28039 15.7754C9.05679 15.6543 8.89311 15.4531 8.82054 15.2092C8.74756 14.9654 8.77498 14.708 8.89606 14.4836Z" fill="#101C38"/>
  <path d="M7.56193 22.8469C7.58809 22.8469 7.61509 22.8443 7.64167 22.8393C8.95918 22.5857 9.14439 21.1155 9.15114 21.0535C9.17772 20.8227 9.01318 20.6151 8.78242 20.5873C8.55545 20.5582 8.3424 20.724 8.31329 20.9543C8.30865 20.9919 8.18968 21.8753 7.48262 22.0107C7.25354 22.0546 7.1042 22.2761 7.14765 22.5047C7.18689 22.7068 7.36365 22.8473 7.56151 22.8473L7.56193 22.8469Z" fill="#101C38"/>
  <path d="M22.351 7.78372C21.7135 6.62947 20.3471 6.04518 19.1021 6.39449C17.6445 6.80371 16.773 8.27985 17.1202 9.76232C17.148 9.88086 17.1227 10.0403 16.9999 10.1112C15.8836 10.7537 15.3453 12.0708 15.6904 13.3128C16.0317 14.5388 17.1775 15.3766 18.4178 15.3762C18.5756 15.3762 18.7347 15.3631 18.8941 15.3349C19.6885 15.1952 20.3867 14.7227 20.8103 14.038C20.8491 13.9747 20.9128 13.9296 20.9904 13.9115C21.0693 13.8937 21.1457 13.9051 21.2085 13.9444C21.8903 14.37 22.7256 14.4835 23.501 14.2561C24.8763 13.8516 25.7424 12.4315 25.4741 11.0225C25.2324 9.75514 24.1646 8.81479 22.8787 8.73463C22.7572 8.72704 22.6514 8.62705 22.621 8.49121C22.5657 8.24525 22.475 8.00774 22.3518 7.7833L22.351 7.78372ZM22.8256 9.57711C23.7271 9.63322 24.4751 10.2926 24.6447 11.1811C24.8329 12.1683 24.2258 13.1639 23.2627 13.4474C22.7201 13.6069 22.1337 13.5271 21.6545 13.228C21.3988 13.0698 21.0946 13.0192 20.7972 13.0905C20.5002 13.1601 20.2496 13.3394 20.0923 13.5946C19.7957 14.0747 19.3059 14.4059 18.7482 14.5033C17.7563 14.6776 16.7729 14.0553 16.5038 13.0871C16.2616 12.2159 16.6388 11.2929 17.4205 10.8427C17.8534 10.5934 18.0626 10.0813 17.9399 9.56277C17.6977 8.52833 18.3086 7.49389 19.3304 7.20702C19.4987 7.15977 19.6704 7.13699 19.8408 7.13699C20.5538 7.13699 21.249 7.53355 21.6119 8.19125C21.6967 8.34524 21.7591 8.5085 21.7966 8.67641C21.9089 9.17591 22.3324 9.54632 22.8256 9.57711Z" fill="#101C38"/>
  <path d="M13.1897 6.8063C12.8758 7.1881 12.826 7.77366 13.0487 8.45415C13.2289 9.00427 13.5617 9.5274 13.9178 9.81934C14.2427 10.086 14.6405 10.2281 15.0548 10.2281C15.1142 10.2281 15.1737 10.2252 15.2336 10.2193C15.7112 10.1724 16.1419 9.94252 16.4465 9.57169C16.7515 9.20087 16.8937 8.73343 16.8465 8.25545C16.8001 7.77788 16.5697 7.34715 16.1989 7.04255C15.839 6.74682 15.2881 6.50298 14.7607 6.40552C14.065 6.27685 13.5073 6.41944 13.1897 6.80588V6.8063ZM16.0069 8.33813C16.0318 8.59168 15.9563 8.83932 15.7947 9.03634C15.4606 9.4426 14.8594 9.50124 14.4532 9.16796C14.2216 8.9777 13.9794 8.58535 13.8503 8.19216C13.728 7.81796 13.7242 7.48468 13.8415 7.34209C13.922 7.24421 14.0798 7.20118 14.2743 7.20118C14.7067 7.20118 15.3197 7.41254 15.6631 7.69477C15.8597 7.85677 15.9825 8.08501 16.0069 8.33813Z" fill="#101C38"/>
  <path d="M17.139 6.6414C17.4849 6.6414 17.8346 6.54184 18.1422 6.33386C18.54 6.0647 18.8096 5.65717 18.9007 5.18636C18.9923 4.71512 18.8944 4.23672 18.6261 3.83889C18.1557 3.14237 16.7323 2.12776 15.8088 2.75509C14.9005 3.36892 15.1612 5.13025 15.6481 5.85081C15.9948 6.36423 16.5618 6.6414 17.139 6.6414ZM16.2805 3.45414C16.3349 3.41744 16.4045 3.40056 16.4846 3.40056C16.9069 3.40056 17.6229 3.86251 17.9262 4.31097C18.2202 4.74634 18.1055 5.33992 17.6701 5.63481C17.4592 5.77698 17.2044 5.82761 16.9555 5.78078C16.7053 5.73226 16.4893 5.58967 16.3471 5.37873C16.0079 4.87712 15.9151 3.70094 16.2805 3.45414Z" fill="#101C38"/>
  <path d="M25.2635 3.98C24.2422 3.521 23.0171 4.76215 22.6715 5.52743C22.4745 5.96534 22.4598 6.45345 22.6298 6.90232C22.7998 7.3512 23.1343 7.70684 23.5722 7.90428C23.8081 8.01017 24.0578 8.06375 24.3093 8.06375C24.5244 8.06375 24.74 8.02451 24.9467 7.94604C25.3956 7.77603 25.7512 7.44148 25.9487 7.004C26.1377 6.58423 26.2035 5.96745 26.1208 5.39496C26.0183 4.68579 25.7137 4.18376 25.2631 3.98042L25.2635 3.98ZM25.1796 6.65721C24.9636 7.13646 24.3983 7.3512 23.919 7.13478C23.4398 6.91878 23.2255 6.35346 23.4415 5.87464C23.5731 5.58185 23.8718 5.2279 24.1835 4.9946C24.4797 4.77312 24.7607 4.67904 24.9172 4.74992C25.0851 4.82543 25.2302 5.12623 25.2863 5.5152C25.3458 5.92526 25.3028 6.38426 25.1796 6.65721Z" fill="#101C38"/>
  <path d="M22.3426 2.62276C22.0427 1.97223 21.6073 1.57735 21.1175 1.51154C20.6256 1.44573 20.116 1.72037 19.6941 2.28779C19.3739 2.71852 19.1368 3.27244 19.0744 3.73398C18.9419 4.71568 19.6325 5.62229 20.6146 5.75518C20.6956 5.76573 20.7762 5.77121 20.856 5.77121C21.7415 5.77121 22.5144 5.11477 22.6359 4.21449C22.6974 3.75802 22.5852 3.14799 22.3426 2.62276ZM21.7997 4.10143C21.7297 4.62244 21.2491 4.98905 20.7277 4.91902C20.2071 4.84857 19.8401 4.36763 19.9105 3.84704C19.9536 3.52852 20.1384 3.10412 20.3708 2.79151C20.5779 2.51307 20.8049 2.34601 20.9732 2.34601C20.9838 2.34601 20.9943 2.34601 21.0045 2.34812C21.1876 2.37301 21.412 2.61938 21.5765 2.97629C21.7499 3.3526 21.8402 3.80443 21.7997 4.10143Z" fill="#101C38"/>
  <path d="M21.964 9.59589C21.7387 9.65157 21.6007 9.87981 21.6552 10.1055C21.664 10.1422 21.8644 11.0104 21.2514 11.3876C21.0527 11.5095 20.9907 11.7694 21.113 11.9677C21.1924 12.0976 21.3312 12.1689 21.4729 12.1689C21.5484 12.1689 21.6244 12.1487 21.6931 12.1065C22.836 11.4036 22.4892 9.96292 22.474 9.90175C22.4171 9.67646 22.1888 9.54189 21.964 9.59589Z" fill="#101C38"/>
</svg>