<svg xmlns="http://www.w3.org/2000/svg" width="1600" height="51" viewBox="0 0 1600 51" fill="none">
  <path d="M124.643 50.8673C124.323 50.7704 123.178 50.6388 122.103 50.573C121.029 50.5072 118.302 50.1653 116.047 49.8106C113.793 49.4578 110.538 48.8398 108.819 48.4376C107.099 48.0354 104.462 47.3297 102.958 46.869C101.453 46.4101 99.1675 45.6606 97.8781 45.2035C96.5887 44.7483 94.7405 44.0334 93.7754 43.6166C92.8103 43.1998 90.5246 42.3716 88.6959 41.7793C86.8673 41.1851 84.3627 40.4337 83.128 40.1101C81.8933 39.7865 79.3418 39.2326 77.4624 38.8779C75.583 38.525 72.7229 38.1192 71.113 37.9766C69.4993 37.834 66.8619 37.6658 65.2521 37.6018C63.107 37.5159 61.1142 37.5835 57.8282 37.8559C55.3588 38.0607 51.9281 38.483 50.2089 38.7956C48.4897 39.1064 45.9422 39.6549 44.5433 40.0114C43.1445 40.3679 40.3313 41.1924 38.2916 41.8432C36.252 42.4941 32.4697 43.7574 29.8909 44.6514C27.3121 45.5454 23.1821 46.7666 20.7087 47.3645C18.2354 47.9641 14.7188 48.7009 12.8941 49.0044C11.0655 49.306 8.25224 49.7174 6.64243 49.9148C5.02871 50.1141 2.87578 50.3243 1.85597 50.3828L0 50.4907L0 3.8147e-06L1599.65 3.8147e-06C1599.65 3.8147e-06 1600.43 49.0281 1599.65 49.2109C1599.22 49.3115 1598.39 49.3938 1597.8 49.3919C1597.21 49.3919 1594.7 49.1908 1592.23 48.9477C1589.76 48.7027 1586.41 48.2895 1584.8 48.0281C1583.19 47.7685 1580.47 47.2913 1578.75 46.9714C1577.03 46.6496 1572.72 45.7099 1569.18 44.8817C1565.63 44.0536 1560.75 42.878 1558.33 42.271C1555.91 41.6641 1552.4 40.8834 1550.52 40.5379C1548.64 40.1924 1545.26 39.6841 1543 39.4081C1539.28 38.9547 1538.27 38.909 1532.25 38.9163C1525.96 38.9254 1525.38 38.9565 1521.31 39.5105C1518.95 39.8322 1516.4 40.2253 1515.65 40.3825C1514.89 40.5416 1512.8 41.0078 1511 41.4209C1509.2 41.8341 1507.26 42.2893 1506.7 42.4301C1506.14 42.5727 1502.96 43.5289 1499.63 44.5563C1496.29 45.5819 1492.78 46.7045 1491.81 47.05C1490.85 47.3955 1488.91 47.9769 1487.51 48.3425C1486.12 48.7082 1483.39 49.2914 1481.46 49.6369C1479.52 49.9843 1476.8 50.3627 1475.4 50.4779C1474.01 50.5912 1472.51 50.7686 1472.08 50.8691C1471.61 50.9825 1468.53 51.0264 1464.26 50.9843C1459.79 50.9386 1456.23 50.8088 1454.5 50.6242C1452.99 50.4651 1450.35 50.1141 1448.64 49.8453C1446.92 49.5766 1443.84 48.9788 1441.8 48.5181C1439.76 48.0573 1436.5 47.1908 1434.57 46.5893C1432.63 45.9896 1430 45.0719 1428.71 44.549C1427.42 44.0261 1424.61 42.9804 1422.46 42.2272C1420.31 41.474 1417.06 40.4794 1415.23 40.0187C1413.4 39.558 1410.68 38.9638 1409.17 38.7005C1407.67 38.4373 1404.41 38.0552 1401.94 37.8523C1398.67 37.5853 1396.65 37.5159 1394.52 37.6C1392.91 37.664 1390.27 37.8358 1388.66 37.9821C1387.04 38.1265 1384.41 38.4866 1382.8 38.7792C1381.18 39.0735 1379.25 39.4556 1378.5 39.6275C1377.74 39.7993 1375.81 40.3149 1374.2 40.7719C1372.59 41.229 1369.6 42.1778 1367.56 42.8798C1365.52 43.5801 1362.62 44.5728 1361.11 45.0847C1359.61 45.5966 1358.02 46.1158 1357.59 46.2383C1357.17 46.3589 1355.32 46.8489 1353.49 47.3242C1351.66 47.7996 1348.76 48.4614 1347.05 48.7941C1345.33 49.1268 1342.25 49.615 1340.21 49.8801C1337.48 50.2329 1335.56 50.3609 1332.98 50.3627C1329.96 50.3646 1328.85 50.2695 1325.16 49.6936C1322.8 49.3225 1317.79 48.3096 1314.03 47.4412C1310.27 46.5728 1304.11 45.0627 1300.35 44.0865C1296.59 43.1102 1292.28 42.0224 1290.78 41.6677C1289.28 41.3149 1286.64 40.7737 1284.92 40.4648C1283.2 40.1576 1279.95 39.6823 1277.69 39.4081C1274.03 38.962 1272.89 38.9071 1267.14 38.9053C1261.25 38.9017 1260.36 38.9455 1256.79 39.4154C1254.64 39.6969 1251.65 40.1631 1250.14 40.4483C1248.64 40.7335 1246.22 41.26 1244.77 41.6166C1243.32 41.9712 1240.24 42.8104 1237.93 43.4795C1235.62 44.1468 1233.03 44.9311 1232.17 45.2218C1231.31 45.5125 1229.2 46.2127 1227.48 46.7794C1225.76 47.3462 1222.95 48.1597 1221.23 48.5894C1219.51 49.019 1216.52 49.615 1214.59 49.913C1212.65 50.2128 1210.19 50.5163 1209.12 50.5876C1208.04 50.6607 1206.99 50.7905 1206.77 50.8783C1206.56 50.966 1203.13 51.0099 1199.15 50.9752C1194.2 50.9331 1191 50.8161 1188.99 50.6022C1187.38 50.4322 1184.57 50.0446 1182.74 49.743C1180.91 49.4413 1177.75 48.8033 1175.71 48.3243C1173.67 47.8471 1170.51 46.9732 1168.68 46.3864C1166.85 45.7977 1163.86 44.7263 1162.03 44.006C1160.21 43.2857 1157.44 42.2692 1155.88 41.7482C1154.32 41.2271 1151.6 40.4355 1149.82 39.9894C1148.05 39.5415 1145.15 38.9254 1143.38 38.6183C1141.46 38.2856 1138.29 37.9364 1135.56 37.7572C1131.29 37.4757 1130.65 37.4757 1126.38 37.7572C1123.77 37.929 1120.48 38.2855 1118.76 38.5835C1117.1 38.8724 1114.5 39.3971 1113 39.7499C1111.49 40.101 1108.94 40.7865 1107.33 41.271C1105.72 41.7555 1102.12 42.9493 1099.32 43.9238C1096.53 44.8964 1092.75 46.1085 1090.92 46.6131C1089.09 47.1195 1086.72 47.7136 1085.65 47.9349C1084.57 48.1561 1082.46 48.5747 1080.96 48.8654C1079.45 49.1561 1076.55 49.6168 1074.51 49.8892C1071.43 50.3006 1070.04 50.3847 1066.3 50.381C1062.48 50.3755 1061.38 50.3042 1058.88 49.8965C1057.27 49.6314 1054.81 49.1963 1053.41 48.9276C1052.02 48.6588 1048.32 47.8398 1045.21 47.1085C1042.09 46.3754 1036.73 45.0444 1033.29 44.1505C1029.85 43.2565 1025.63 42.1851 1023.91 41.7719C1022.19 41.3569 1019.38 40.7683 1017.66 40.4629C1015.94 40.1576 1012.69 39.6823 1010.43 39.4081C1006.77 38.962 1005.63 38.9071 999.881 38.9053C993.988 38.9017 993.097 38.9455 989.526 39.4154C987.377 39.6969 984.388 40.1631 982.884 40.4483C981.379 40.7335 978.961 41.26 977.511 41.6166C976.062 41.9712 973.248 42.7336 971.26 43.3058C969.271 43.8799 965.711 44.964 963.347 45.7172C960.983 46.4705 958.608 47.2548 958.069 47.4632C957.525 47.6698 955.681 48.1835 953.966 48.6021C952.247 49.0226 949.261 49.6113 947.327 49.9112C945.393 50.211 942.932 50.5163 941.857 50.5876C940.783 50.6607 939.728 50.7905 939.513 50.8783C939.298 50.966 935.871 51.0099 931.893 50.9752C926.935 50.9331 923.743 50.8161 921.734 50.6022C920.121 50.4322 917.311 50.0446 915.483 49.7393C913.654 49.4358 910.669 48.8453 908.84 48.4266C907.012 48.0098 903.761 47.1158 901.612 46.443C899.463 45.7703 896.474 44.7117 894.969 44.092C893.465 43.4704 890.785 42.4776 889.011 41.8816C887.237 41.2875 884.338 40.4355 882.564 39.9913C880.79 39.5452 878.109 38.9638 876.605 38.7005C875.101 38.4373 872.639 38.11 871.135 37.9729C869.63 37.8376 867.169 37.6713 865.664 37.6036C863.832 37.5214 861.511 37.5817 858.631 37.7883C856.267 37.9565 852.927 38.3386 851.207 38.6366C849.488 38.9346 846.937 39.4501 845.542 39.7829C844.147 40.1156 841.681 40.7847 840.072 41.271C838.458 41.7573 834.769 42.9767 831.866 43.9823C828.963 44.986 825.009 46.2419 823.075 46.7703C821.141 47.3005 817.624 48.1067 815.26 48.5638C812.896 49.0208 809.204 49.6113 807.055 49.8746C804.66 50.1689 802.089 50.3554 800.412 50.3572C798.701 50.3591 796.579 50.2073 794.747 49.9514C793.133 49.7283 790.41 49.3097 788.69 49.0208C786.971 48.7338 784.424 48.2804 783.025 48.0116C781.626 47.7447 777.672 46.891 774.233 46.1158C770.795 45.3406 765.43 44.0462 762.316 43.2363C759.202 42.4283 755.42 41.516 753.915 41.207C752.411 40.8981 750.215 40.4794 749.031 40.2746C747.847 40.0699 745.124 39.6914 742.975 39.4355C740.724 39.1649 737.329 38.9199 734.965 38.856C732.707 38.7956 729.28 38.8377 727.346 38.9474C725.412 39.0589 722.598 39.3203 721.094 39.5306C719.59 39.7408 717.218 40.1247 715.819 40.3862C714.42 40.6458 711.654 41.2564 709.665 41.7445C707.676 42.2308 704.25 43.1687 702.046 43.8287C699.842 44.4868 695.755 45.7648 692.961 46.6697C690.168 47.5729 686.651 48.5857 685.147 48.9203C683.642 49.253 681.271 49.7082 679.872 49.9313C678.473 50.1543 676.101 50.4651 674.597 50.6242C672.811 50.8125 669.35 50.935 664.633 50.9752C660.66 51.0099 657.229 50.966 657.014 50.8783C656.799 50.7905 655.744 50.6607 654.67 50.5876C653.595 50.5163 651.044 50.2092 649.004 49.9075C646.965 49.604 643.62 48.9678 641.58 48.4943C639.541 48.0208 636.196 47.1067 634.156 46.465C632.117 45.8233 629.214 44.794 627.709 44.1797C626.205 43.5654 623.654 42.6056 622.044 42.048C620.43 41.4886 617.441 40.6147 615.401 40.1046C613.362 39.5945 610.283 38.9327 608.564 38.6347C606.844 38.3386 603.504 37.9565 601.14 37.7883C598.26 37.5817 595.939 37.5214 594.106 37.6036C592.602 37.6713 590.141 37.8413 588.636 37.9802C587.132 38.121 584.713 38.4428 583.264 38.6951C581.814 38.9492 579.528 39.4136 578.184 39.7298C576.84 40.0461 574.601 40.6403 573.202 41.0498C571.804 41.4612 569.166 42.3149 567.341 42.9511C565.517 43.5855 563.18 44.4101 562.152 44.7848C561.129 45.1578 558.577 45.9512 556.487 46.5491C554.4 47.1451 550.845 48.019 548.586 48.4888C546.328 48.9587 542.725 49.5711 540.576 49.8508C537.626 50.2347 535.809 50.3591 533.152 50.3572C530.468 50.3554 528.897 50.2457 526.51 49.8892C524.791 49.6333 522.243 49.2036 520.844 48.9367C519.446 48.668 515.753 47.8489 512.639 47.114C509.525 46.3809 504.336 45.1011 501.112 44.2729C497.889 43.4448 493.669 42.3807 491.735 41.9109C489.801 41.441 486.898 40.8176 485.288 40.5288C483.674 40.2381 480.951 39.8121 479.232 39.5818C477.512 39.3496 474.086 39.0644 471.612 38.9474C468.236 38.7846 466.052 38.7828 462.821 38.9382C460.172 39.0644 457.022 39.3642 454.616 39.7207C452.466 40.0388 449.388 40.58 447.778 40.9255C446.164 41.2692 443.089 42.0444 440.94 42.6477C438.791 43.251 435.774 44.1322 434.235 44.6039C432.699 45.0774 429.71 46.0317 427.593 46.7264C425.479 47.423 422.693 48.2603 421.403 48.5894C420.114 48.9203 417.562 49.4413 415.738 49.7484C413.913 50.0574 411.096 50.4487 409.486 50.6187C407.298 50.849 404.727 50.9276 399.327 50.924C393.958 50.9222 391.344 50.8417 389.168 50.6114C387.554 50.4395 384.655 50.0446 382.721 49.7302C380.787 49.4175 377.798 48.8343 376.079 48.4358C374.359 48.0354 371.214 47.1634 369.085 46.4942C366.959 45.8269 363.618 44.6404 361.661 43.8579C359.707 43.0755 356.874 42.0425 355.37 41.5617C353.866 41.0809 351.666 40.4282 350.486 40.1138C349.306 39.7975 346.754 39.2435 344.82 38.8815C342.515 38.4519 339.553 38.0881 336.224 37.8303C331.246 37.4427 331.051 37.4409 326.553 37.7481C324.029 37.9181 320.864 38.2307 319.52 38.4409C318.176 38.6512 315.41 39.2051 313.366 39.6713C311.323 40.1375 307.896 41.0827 305.747 41.7701C303.598 42.4575 299.73 43.7537 297.151 44.6496C294.517 45.5637 290.321 46.7922 287.578 47.4504C284.89 48.0939 282.252 48.6808 281.717 48.7539C281.178 48.827 280.213 48.9952 279.568 49.1305C278.923 49.264 277.341 49.509 276.051 49.6753C274.762 49.8399 272.566 50.0885 271.167 50.2256C269.768 50.3646 267.573 50.4816 266.283 50.4852C264.994 50.4907 262.532 50.3262 260.813 50.1196C259.094 49.913 255.839 49.3791 253.584 48.9331C251.33 48.487 247.106 47.5546 244.207 46.8599C241.308 46.167 235.591 44.741 231.508 43.6916C227.425 42.6403 223.115 41.569 221.935 41.3076C220.755 41.0461 218.645 40.6311 217.246 40.3843C215.848 40.1375 213.386 39.7664 211.776 39.5562C210.162 39.3477 207.177 39.0808 205.134 38.9638C202.825 38.8285 199.796 38.7974 197.124 38.8779C194.76 38.9474 191.505 39.1704 189.895 39.3715C188.282 39.5726 186.176 39.8615 185.206 40.0132C184.237 40.1668 182.128 40.5745 180.518 40.92C178.904 41.2655 175.829 42.0425 173.68 42.6477C171.531 43.251 168.518 44.1322 166.983 44.6039C165.447 45.0774 162.458 46.0299 160.34 46.7209C158.223 47.412 155.433 48.2511 154.143 48.5857C152.854 48.9184 150.217 49.4523 148.282 49.7686C146.348 50.0867 143.535 50.4761 142.031 50.6333C140.276 50.818 136.771 50.9423 132.262 50.9807C128.199 51.0172 124.983 50.9679 124.643 50.8673Z" fill="currentColor"/>
</svg>