<svg xmlns="http://www.w3.org/2000/svg" width="100" height="100" viewBox="0 0 100 100" fill="none">
  <g clip-path="url(#clip0_2_366)">
    <path d="M82.3416 35.5425L62.7044 26.5954V21.5921C62.7044 21.5921 20.9663 13.2084 20.8423 13.2084L20.842 15.0755L71.5904 37.3487" stroke="#D0A045" stroke-width="2.5" stroke-miterlimit="10"/>
    <path d="M94.506 48.5794C95.0109 47.4931 95.2854 46.314 95.3123 45.1164C95.2641 43.8557 94.8579 42.6348 94.1411 41.5965C93.4244 40.5583 92.4267 39.7456 91.265 39.2537C88.806 37.9455 86.2496 36.8294 83.6186 35.9153C82.6611 35.5683 81.6525 35.3831 80.6341 35.3674C78.1834 35.3674 75.9901 36.6365 74.5748 39.8774L74.2435 40.6361C73.7386 41.7224 73.4641 42.9015 73.4373 44.0991C73.4854 45.3598 73.8916 46.5807 74.6084 47.6189C75.3251 48.6572 76.3228 49.4698 77.4846 49.9617C86.3531 54.6914 92.4494 52.9823 94.506 48.5794Z" stroke="#D0A045" stroke-width="2.5" stroke-miterlimit="10"/>
    <path d="M61.7151 21.47L73.9128 16.1045" stroke="#D0A045" stroke-width="2.5" stroke-miterlimit="10"/>
    <path d="M61.5383 32.841C54.7819 34.1979 20.9539 40.9905 20.8423 40.9905L20.842 39.1234L42.2983 29.7941L42.6428 28.9318" stroke="#D0A045" stroke-width="2.5" stroke-miterlimit="10"/>
    <path d="M83.2878 18.5987L63.9923 27.0429" stroke="#D0A045" stroke-width="2.5" stroke-miterlimit="10"/>
    <path d="M94.506 5.7743C95.0109 6.86063 95.2854 8.03971 95.3123 9.23732C95.2641 10.498 94.8579 11.7189 94.1411 12.7572C93.4244 13.7955 92.4267 14.6081 91.265 15.1C88.806 16.4082 86.2496 17.5243 83.6186 18.4384C82.6611 18.7854 81.6525 18.9706 80.6341 18.9863C78.1834 18.9863 75.9901 17.7172 74.5748 14.4763L74.2435 13.7176C73.7386 12.6313 73.4641 11.4523 73.4373 10.2547C73.4854 8.99397 73.8916 7.77305 74.6084 6.7348C75.3251 5.69655 76.3228 4.88392 77.4846 4.39201C86.3531 -0.337665 92.4494 1.37141 94.506 5.7743Z" stroke="#D0A045" stroke-width="2.5" stroke-miterlimit="10"/>
    <path d="M57.2927 27.307C58.1557 27.307 58.8552 26.6075 58.8552 25.7445C58.8552 24.8816 58.1557 24.182 57.2927 24.182C56.4298 24.182 55.7302 24.8816 55.7302 25.7445C55.7302 26.6075 56.4298 27.307 57.2927 27.307Z" fill="#D0A045"/>
    <path d="M93.6701 55.74C94.9459 56.4528 96.0359 57.4561 96.8518 58.6686C97.6677 59.8811 98.1866 61.2687 98.3664 62.719C98.5463 64.1693 98.382 65.6417 97.887 67.0167C97.392 68.3917 96.58 69.6309 95.517 70.6337L89.5178 76.2934C84.6457 79.9191 80.6264 84.5675 77.742 89.912L77.0211 91.2477C76.7785 91.6974 76.4106 92.0671 75.9621 92.3119C75.5136 92.5568 75.0038 92.6664 74.4943 92.6274C73.9848 92.5884 73.4975 92.4026 73.0915 92.0923C72.6855 91.782 72.3781 91.3607 72.2067 90.8793L68.1079 79.9052" stroke="#D0A045" stroke-width="2.5" stroke-linecap="round" stroke-linejoin="round"/>
    <path d="M18.7499 46.3842L16.8206 48.1177C13.6381 51.0654 10.1164 53.6242 6.32955 55.74C5.05376 56.4529 3.96377 57.4562 3.14787 58.6686C2.33197 59.8811 1.81308 61.2687 1.63324 62.719C1.45339 64.1694 1.61764 65.6417 2.11268 67.0167C2.60772 68.3918 3.41964 69.6309 4.48268 70.6338L10.4819 76.2934C15.354 79.9192 19.3733 84.5675 22.2577 89.912L22.9785 91.2477C23.2212 91.6974 23.5891 92.0671 24.0376 92.312C24.4861 92.5568 24.9959 92.6664 25.5054 92.6274C26.0149 92.5885 26.5022 92.4026 26.9082 92.0923C27.3142 91.7821 27.6215 91.3607 27.793 90.8794L32.1565 80.0772" stroke="#D0A045" stroke-width="2.5" stroke-linecap="round" stroke-linejoin="round"/>
    <path d="M56.25 63.6756C56.25 67.0808 51.4642 69.0223 50.0211 69.0223C48.2873 69.0223 43.75 66.8275 43.75 63.6519C43.75 59.2987 49.4378 59.375 50.0211 59.375C56.2294 59.375 56.25 63.1139 56.25 63.6756Z" stroke="#D0A045" stroke-width="2.5" stroke-miterlimit="10"/>
    <path d="M50 69.5993V74.654L42.8894 81.2386C41.6107 82.5173 39.8765 83.2356 38.0682 83.2356C36.2599 83.2356 34.5257 82.5173 33.247 81.2386C31.9683 79.96 31.25 78.2258 31.25 76.4175C31.25 74.6092 31.9683 72.8749 33.247 71.5963" stroke="#D0A045" stroke-width="2.5" stroke-linecap="round" stroke-linejoin="round"/>
    <path d="M38.2812 53.125C39.5757 53.125 40.625 52.0757 40.625 50.7812C40.625 49.4868 39.5757 48.4375 38.2812 48.4375C36.9868 48.4375 35.9375 49.4868 35.9375 50.7812C35.9375 52.0757 36.9868 53.125 38.2812 53.125Z" fill="#D0A045"/>
    <path d="M50 69.5993V74.654L57.1106 81.2386C58.3893 82.5173 60.1235 83.2356 61.9318 83.2356C63.7401 83.2356 65.4743 82.5173 66.753 81.2386C68.0317 79.96 68.75 78.2258 68.75 76.4175C68.75 74.6092 68.0317 72.8749 66.753 71.5963" stroke="#D0A045" stroke-width="2.5" stroke-linecap="round" stroke-linejoin="round"/>
    <path d="M61.7188 53.125C63.0132 53.125 64.0625 52.0757 64.0625 50.7812C64.0625 49.4868 63.0132 48.4375 61.7188 48.4375C60.4243 48.4375 59.375 49.4868 59.375 50.7812C59.375 52.0757 60.4243 53.125 61.7188 53.125Z" fill="#D0A045"/>
    <path d="M43.75 81.25C44.5708 82.0708 45.5451 82.7218 46.6175 83.166C47.6899 83.6102 48.8393 83.8388 50 83.8388C51.1607 83.8388 52.3101 83.6102 53.3825 83.166C54.4549 82.7218 55.4292 82.0708 56.25 81.25" stroke="#D0A045" stroke-width="2.5" stroke-linecap="round" stroke-linejoin="round"/>
    <path d="M25.5266 45.3174C24.1772 48.8194 23.4695 52.5359 23.4375 56.2888C23.4375 61.3532 24.8661 64.9766 28.4027 72.2397" stroke="#D0A045" stroke-width="2.5" stroke-linecap="round" stroke-linejoin="round"/>
    <path d="M71.5973 72.2397C75.1338 64.9765 76.5625 61.3531 76.5625 56.2887C76.5516 53.7757 76.2251 51.2739 75.5905 48.8422" stroke="#D0A045" stroke-width="2.5" stroke-linecap="round" stroke-linejoin="round"/>
    <path d="M48.4375 53.125H51.5625" stroke="#D0A045" stroke-width="2.5" stroke-miterlimit="10" stroke-linecap="round"/>
    <path d="M74.1372 98.4375C73.6494 95.881 73.0047 93.3568 72.2068 90.8794" stroke="#D0A045" stroke-width="2.5" stroke-linecap="round" stroke-linejoin="round"/>
    <path d="M27.7929 90.8794C26.995 93.3568 26.3503 95.881 25.8624 98.4375" stroke="#D0A045" stroke-width="2.5" stroke-linecap="round" stroke-linejoin="round"/>
    <path d="M26.5625 28.9062L28.125 30.4688" stroke="#D0A045" stroke-width="2.5" stroke-linecap="round" stroke-linejoin="round"/>
    <path d="M32.8125 26.5625L34.375 28.125" stroke="#D0A045" stroke-width="2.5" stroke-linecap="round" stroke-linejoin="round"/>
  </g>
  <defs>
    <clipPath id="clip0_2_366">
      <rect width="100" height="100" fill="white"/>
    </clipPath>
  </defs>
</svg>