<svg xmlns="http://www.w3.org/2000/svg" width="11" height="11" viewBox="0 0 11 11" fill="none">
  <path d="M9.9225 7.22167C9.205 7.22167 8.51083 7.105 7.86333 6.895C7.65917 6.825 7.43167 6.8775 7.27417 7.035L6.35833 8.18417C4.7075 7.39667 3.16167 5.90917 2.33917 4.2L3.47667 3.23167C3.63417 3.06833 3.68083 2.84083 3.61667 2.63667C3.40083 1.98917 3.29 1.295 3.29 0.5775C3.29 0.2625 3.0275 0 2.7125 0H0.694167C0.379167 0 0 0.14 0 0.5775C0 5.99667 4.50917 10.5 9.9225 10.5C10.3367 10.5 10.5 10.1325 10.5 9.81167V7.79917C10.5 7.48417 10.2375 7.22167 9.9225 7.22167Z" fill="currentColor"/>
</svg>