<svg xmlns="http://www.w3.org/2000/svg" width="10" height="10" viewBox="0 0 10 10" fill="none">
  <path d="M8.78805 7.33278C8.78805 7.47678 8.75605 7.62478 8.68805 7.76878C8.62005 7.91278 8.53205 8.04878 8.41605 8.17678C8.22005 8.39278 8.00405 8.54878 7.76005 8.64878C7.52005 8.74878 7.26005 8.80078 6.98005 8.80078C6.57205 8.80078 6.13605 8.70478 5.67605 8.50878C5.21605 8.31278 4.75605 8.04878 4.30005 7.71678C3.84005 7.38078 3.40405 7.00878 2.98805 6.59678C2.57605 6.18078 2.20405 5.74478 1.87205 5.28878C1.54405 4.83278 1.28005 4.37678 1.08805 3.92478C0.896049 3.46878 0.800049 3.03278 0.800049 2.61678C0.800049 2.34478 0.848049 2.08478 0.944049 1.84478C1.04005 1.60078 1.19205 1.37678 1.40405 1.17678C1.66005 0.924781 1.94005 0.800781 2.23605 0.800781C2.34805 0.800781 2.46005 0.824781 2.56005 0.872781C2.66405 0.920781 2.75605 0.992781 2.82805 1.09678L3.75605 2.40478C3.82805 2.50478 3.88005 2.59678 3.91605 2.68478C3.95205 2.76878 3.97205 2.85278 3.97205 2.92878C3.97205 3.02478 3.94405 3.12078 3.88805 3.21278C3.83605 3.30478 3.76005 3.40078 3.66405 3.49678L3.36005 3.81278C3.31605 3.85678 3.29605 3.90878 3.29605 3.97278C3.29605 4.00478 3.30005 4.03278 3.30805 4.06478C3.32005 4.09678 3.33205 4.12078 3.34005 4.14478C3.41205 4.27678 3.53605 4.44878 3.71205 4.65678C3.89205 4.86478 4.08405 5.07678 4.29205 5.28878C4.50805 5.50078 4.71605 5.69678 4.92805 5.87678C5.13605 6.05278 5.30805 6.17278 5.44405 6.24478C5.46405 6.25278 5.48805 6.26478 5.51605 6.27678C5.54805 6.28878 5.58005 6.29278 5.61605 6.29278C5.68405 6.29278 5.73605 6.26878 5.78005 6.22478L6.08405 5.92478C6.18405 5.82478 6.28005 5.74878 6.37205 5.70078C6.46405 5.64478 6.55605 5.61678 6.65605 5.61678C6.73205 5.61678 6.81205 5.63278 6.90005 5.66878C6.98805 5.70478 7.08005 5.75678 7.18005 5.82478L8.50405 6.76478C8.60805 6.83678 8.68005 6.92078 8.72405 7.02078C8.76405 7.12078 8.78805 7.22078 8.78805 7.33278Z" stroke="white" stroke-width="0.9" stroke-miterlimit="10"/>
</svg>