<svg xmlns="http://www.w3.org/2000/svg" width="162" height="42" viewBox="0 0 162 42" fill="none">
  <path d="M0.317064 41.0447V36.1143H1.16524L2.70988 40.2103H2.72367L4.26831 36.1143H5.11648V41.0447H4.49587V36.99H4.48208L2.9926 41.0447H2.44094L0.95147 36.99H0.937678V41.0447H0.317064Z" fill="white"/>
  <path d="M12.9911 41.1413C11.543 41.1413 10.5776 40.0586 10.5776 38.576C10.5776 37.0935 11.543 36.0177 12.9911 36.0177C14.4392 36.0177 15.4046 37.0935 15.4046 38.576C15.4046 40.0586 14.4392 41.1413 12.9911 41.1413ZM12.9911 40.5896C14.2324 40.5896 14.784 39.638 14.784 38.576C14.784 37.5141 14.2324 36.5694 12.9911 36.5694C11.7499 36.5694 11.1982 37.5141 11.1982 38.576C11.1982 39.638 11.7499 40.5896 12.9911 40.5896Z" fill="white"/>
  <path d="M24.433 37.3555C24.433 37.9623 24.0744 38.2382 23.6676 38.3761V38.3899C24.1848 38.4795 24.6261 38.8726 24.6261 39.6104C24.6261 40.5206 23.9779 41.0447 22.9573 41.0447H20.8334V36.1143H22.8194C23.8262 36.1143 24.433 36.5901 24.433 37.3555ZM21.4541 38.1761H22.9159C23.6193 38.1761 23.8124 37.8727 23.8124 37.4245C23.8124 36.9762 23.5503 36.6659 22.9849 36.6659H21.4541V38.1761ZM21.4541 38.7278V40.4931H23.0194C23.8124 40.4931 24.0055 40.0724 24.0055 39.6104C24.0055 39.0794 23.6745 38.7278 23.1573 38.7278H21.4541Z" fill="white"/>
  <path d="M29.9741 36.1143H30.5947V41.0447H29.9741V36.1143Z" fill="white"/>
  <path d="M36.2184 36.1143H36.839V40.4931H39.4249V41.0447H36.2184V36.1143Z" fill="white"/>
  <path d="M45.3464 38.2175H47.8771V38.7691H45.3464V40.4931H48.2908V41.0447H44.7257V36.1143H48.2081V36.6659H45.3464V38.2175Z" fill="white"/>
  <path d="M59.774 41.0447V36.1143H61.7324C62.6358 36.1143 63.3322 36.5142 63.3322 37.5486C63.3322 38.5829 62.6358 38.9829 61.7324 38.9829H60.3946V41.0447H59.774ZM60.3946 36.6659V38.4312H61.8014C62.4151 38.4312 62.7116 38.1485 62.7116 37.5486C62.7116 36.9487 62.4151 36.6659 61.8014 36.6659H60.3946Z" fill="white"/>
  <path d="M69.2387 38.2175H71.7694V38.7691H69.2387V40.4931H72.1831V41.0447H68.6181V36.1143H72.1004V36.6659H69.2387V38.2175Z" fill="white"/>
  <path d="M78.9276 41.0447V36.6659H77.2865V36.1143H81.1894V36.6659H79.5483V41.0447H78.9276Z" fill="white"/>
  <path d="M96.1224 37.6038C95.9776 36.9004 95.4122 36.5694 94.6674 36.5694C93.4952 36.5694 92.9987 37.652 92.9987 38.576C92.9987 39.507 93.3572 40.5896 94.5985 40.5896C95.4811 40.5896 96.2052 39.9552 96.2052 39.0312H94.5985V38.4795H96.8258V41.0447H96.412L96.2052 40.3482H96.1914C95.819 40.8654 95.357 41.1413 94.5985 41.1413C93.1642 41.1413 92.3781 40.0655 92.3781 38.576C92.3781 37.0935 93.3021 36.0177 94.6674 36.0177C95.9156 36.0177 96.5707 36.6659 96.743 37.6038H96.1224Z" fill="white"/>
  <path d="M102.371 41.0447V36.1143H104.371C105.343 36.1143 105.998 36.6383 105.998 37.5141C105.998 38.2244 105.66 38.6174 105.116 38.7553V38.7691C106.212 38.9829 105.812 40.9206 106.067 41.0033V41.0447H105.398C105.185 40.8378 105.654 39.0518 104.405 39.0518H102.992V41.0447H102.371ZM102.992 36.6659V38.5002H104.226C104.736 38.5002 105.378 38.4381 105.378 37.5831C105.378 36.728 104.736 36.6659 104.226 36.6659H102.992Z" fill="white"/>
  <path d="M113.651 41.1413C112.203 41.1413 111.238 40.0586 111.238 38.576C111.238 37.0935 112.203 36.0177 113.651 36.0177C115.099 36.0177 116.065 37.0935 116.065 38.576C116.065 40.0586 115.099 41.1413 113.651 41.1413ZM113.651 40.5896C114.893 40.5896 115.444 39.638 115.444 38.576C115.444 37.5141 114.893 36.5694 113.651 36.5694C112.41 36.5694 111.858 37.5141 111.858 38.576C111.858 39.638 112.41 40.5896 113.651 40.5896Z" fill="white"/>
  <path d="M123.721 41.1413C122.273 41.1413 121.307 40.0586 121.307 38.576C121.307 37.0935 122.273 36.0177 123.721 36.0177C125.169 36.0177 126.134 37.0935 126.134 38.576C126.134 40.0586 125.169 41.1413 123.721 41.1413ZM123.721 40.5896C124.962 40.5896 125.514 39.638 125.514 38.576C125.514 37.5141 124.962 36.5694 123.721 36.5694C122.48 36.5694 121.928 37.5141 121.928 38.576C121.928 39.638 122.48 40.5896 123.721 40.5896Z" fill="white"/>
  <path d="M131.563 41.0447V36.1143H132.411L133.956 40.2103H133.97L135.515 36.1143H136.363V41.0447H135.742V36.99H135.728L134.239 41.0447H133.687L132.198 36.99H132.184V41.0447H131.563Z" fill="white"/>
  <path d="M141.99 36.1143H142.611V41.0447H141.99V36.1143Z" fill="white"/>
  <path d="M148.234 41.0447V36.1143H148.993L151.455 40.1759H151.469V36.1143H152.089V41.0447H151.331L148.869 36.9969H148.855V41.0447H148.234Z" fill="white"/>
  <path d="M161.297 37.6038C161.152 36.9004 160.586 36.5694 159.842 36.5694C158.669 36.5694 158.173 37.652 158.173 38.576C158.173 39.507 158.531 40.5896 159.773 40.5896C160.655 40.5896 161.379 39.9552 161.379 39.0312H159.773V38.4795H162V41.0447H161.586L161.379 40.3482H161.366C160.993 40.8654 160.531 41.1413 159.773 41.1413C158.338 41.1413 157.552 40.0655 157.552 38.576C157.552 37.0935 158.476 36.0177 159.842 36.0177C161.09 36.0177 161.745 36.6659 161.917 37.6038H161.297Z" fill="white"/>
  <path d="M4.31223 30.7775C2.84664 30.7775 1.76153 30.3406 1.05692 29.4669C0.352306 28.5932 0 27.4235 0 25.9579V6.25696C0 4.11494 0.577783 2.53661 1.73335 1.52196C2.9171 0.507321 4.32632 0 5.96103 0C7.51117 0 8.82175 0.507321 9.89277 1.52196C10.992 2.53661 11.7952 4.14313 12.3025 6.34152L15.6001 20.6733H16.6993L19.9969 6.34152C20.5042 4.14313 21.3075 2.53661 22.4067 1.52196C23.5341 0.507321 24.8728 0 26.423 0C28.0577 0 29.4528 0.507321 30.6084 1.52196C31.7921 2.53661 32.384 4.11494 32.384 6.25696V25.9579C32.384 27.4235 32.0176 28.5932 31.2848 29.4669C30.5802 30.3406 29.4951 30.7775 28.0295 30.7775C26.6203 30.7775 25.5352 30.3406 24.7742 29.4669C24.0132 28.5932 23.6327 27.4235 23.6327 25.9579V14.5855C23.6327 14.3036 23.5904 14.05 23.5059 13.8245C23.4495 13.5708 23.2663 13.444 22.9563 13.444C22.7026 13.444 22.5194 13.5708 22.4067 13.8245C22.294 14.05 22.2094 14.3036 22.153 14.5855L20.5465 25.2392C20.3492 26.3948 20.1097 27.3954 19.8278 28.2409C19.5741 29.0582 19.1655 29.6924 18.6018 30.1433C18.0381 30.5661 17.2207 30.7775 16.1497 30.7775C15.1069 30.7775 14.2896 30.5661 13.6977 30.1433C13.134 29.6924 12.7112 29.0582 12.4294 28.2409C12.1757 27.3954 11.9643 26.3948 11.7952 25.2392L10.1464 14.5855C10.1182 14.3036 10.0478 14.05 9.93504 13.8245C9.8223 13.5708 9.62501 13.444 9.34317 13.444C9.06132 13.444 8.87812 13.5708 8.79357 13.8245C8.70902 14.05 8.66674 14.3036 8.66674 14.5855V25.9579C8.66674 27.4235 8.28625 28.5932 7.52527 29.4669C6.79247 30.3406 5.72146 30.7775 4.31223 30.7775Z" fill="white"/>
  <path d="M44.6899 30.862C41.3923 30.862 38.757 29.8897 36.7841 27.945C34.8394 25.972 33.867 23.1959 33.867 19.6164C33.867 17.418 34.318 15.4874 35.2199 13.8245C36.1218 12.1616 37.376 10.8651 38.9825 9.93504C40.6172 8.97677 42.5196 8.49763 44.6899 8.49763C47.1137 8.49763 49.1289 8.97677 50.7354 9.93504C52.342 10.8651 53.5398 12.1616 54.329 13.8245C55.1463 15.4874 55.555 17.418 55.555 19.6164C55.555 23.1959 54.6531 25.972 52.8493 27.945C51.0736 29.8897 48.3538 30.862 44.6899 30.862ZM38.8979 18.8977C38.8979 19.7714 39.3348 20.3915 40.2085 20.7579C41.0822 21.0961 42.576 21.2652 44.6899 21.2652C46.8037 21.2652 48.2975 21.0961 49.1712 20.7579C50.0449 20.3915 50.4818 19.7714 50.4818 18.8977C50.4818 18.0522 50.0449 17.4603 49.1712 17.1221C48.2975 16.7839 46.8037 16.6148 44.6899 16.6148C42.576 16.6148 41.0822 16.7839 40.2085 17.1221C39.3348 17.4603 38.8979 18.0522 38.8979 18.8977Z" fill="white"/>
  <path d="M60.8657 30.7775C59.6256 30.7775 58.625 30.4111 57.864 29.6783C57.1312 28.9173 56.7648 27.9872 56.7648 26.888V12.8944C56.7648 11.7107 57.1171 10.7101 57.8217 9.89277C58.5264 9.07542 59.541 8.66674 60.8657 8.66674C62.1622 8.66674 63.1486 9.07542 63.8251 9.89277C64.5015 10.7101 64.8397 11.7389 64.8397 12.979V15.0928H65.6007C65.6007 13.4863 65.8825 12.218 66.4462 11.2879C67.0381 10.3578 67.785 9.69548 68.6869 9.30089C69.5888 8.87812 70.4907 8.66674 71.3926 8.66674C73.5628 8.66674 75.1552 9.45591 76.1699 11.0342C77.1845 12.5844 77.6918 14.7969 77.6918 17.6717V26.888C77.6918 27.9872 77.3254 28.9173 76.5926 29.6783C75.8598 30.4111 74.8734 30.7775 73.6333 30.7775C72.365 30.7775 71.3503 30.4111 70.5893 29.6783C69.8565 28.9173 69.4901 27.9872 69.4901 26.888V19.405C69.4901 18.3904 69.2928 17.6012 68.8983 17.0375C68.5319 16.4739 67.9823 16.192 67.2495 16.192C66.4039 16.192 65.7839 16.502 65.3893 17.1221C65.0229 17.7422 64.8397 18.5313 64.8397 19.4896V26.888C64.8397 27.9872 64.4874 28.9173 63.7828 29.6783C63.0782 30.4111 62.1058 30.7775 60.8657 30.7775Z" fill="white"/>
  <path d="M85.2964 30.7775C83.2107 30.7775 81.576 30.2138 80.3923 29.0864C79.2367 27.959 78.6589 26.3807 78.6589 24.3514C78.6589 22.3221 79.3353 20.8565 80.6882 19.9546C82.0411 19.0246 83.7744 18.5595 85.8883 18.5595C87.1284 18.5595 88.2557 18.6441 89.2704 18.8132C90.285 18.9823 91.201 19.2218 92.0184 19.5319H92.1452V18.8977C92.1452 18.2495 91.9056 17.7422 91.4265 17.3758C90.9474 16.9812 90.3414 16.798 89.6086 16.8262C88.904 16.8262 88.298 16.8684 87.7907 16.953C87.3116 17.0375 86.7056 17.1785 85.9728 17.3758C84.6199 17.714 83.4503 17.6858 82.4638 17.2912C81.4774 16.8966 80.8009 16.1215 80.4345 14.966C80.0963 13.754 80.1668 12.7394 80.6459 11.9221C81.1532 11.1047 81.9142 10.4705 82.9289 10.0196C83.8026 9.59683 84.775 9.24452 85.846 8.96268C86.9452 8.68083 88.1289 8.53991 89.3972 8.53991C93.0894 8.53991 95.7951 9.44181 97.5144 11.2456C99.2618 13.0212 100.136 16.0088 100.136 20.2083V26.7612C100.136 27.9168 99.7832 28.875 99.0786 29.636C98.374 30.397 97.4016 30.7775 96.1615 30.7775C94.8086 30.7775 93.794 30.397 93.1176 29.636C92.4693 28.875 92.1452 27.945 92.1452 26.8458V25.8734H91.2997C91.2997 26.6062 91.1588 27.3531 90.8769 28.1141C90.6232 28.875 90.0737 29.5092 89.2281 30.0165C88.4108 30.5238 87.1002 30.7775 85.2964 30.7775ZM85.7191 21.5189C85.7191 21.998 85.8882 22.3362 86.2265 22.5335C86.5929 22.7308 87.3679 22.8295 88.5517 22.8295C89.6227 22.8295 90.3696 22.7308 90.7924 22.5335C91.2151 22.3362 91.4265 21.998 91.4265 21.5189C91.4265 21.0679 91.2151 20.7579 90.7924 20.5888C90.3696 20.3915 89.6227 20.2929 88.5517 20.2929C87.3679 20.2929 86.5929 20.3915 86.2265 20.5888C85.8882 20.7579 85.7191 21.0679 85.7191 21.5189Z" fill="white"/>
  <path d="M105.665 30.7775C104.34 30.7775 103.311 30.397 102.578 29.636C101.846 28.875 101.479 27.9168 101.479 26.7612V12.8944C101.479 11.6825 101.846 10.6819 102.578 9.89277C103.311 9.07542 104.34 8.66674 105.665 8.66674C106.989 8.66674 108.004 9.07542 108.708 9.89277C109.413 10.6819 109.765 11.6543 109.765 12.8099V13.6977H110.569C110.681 12.2039 111.245 10.9779 112.26 10.0196C113.274 9.06132 114.472 8.58219 115.853 8.58219C117.234 8.58219 118.319 9.00495 119.109 9.85049C119.926 10.696 120.335 11.8234 120.335 13.2326C120.335 14.5573 119.954 15.6565 119.193 16.5302C118.432 17.4039 117.46 17.8408 116.276 17.8408C115.29 17.8408 114.458 17.6153 113.782 17.1644C113.133 16.6852 112.654 16.1356 112.344 15.5156C111.442 15.4028 110.78 15.5015 110.357 15.8115C109.963 16.0934 109.765 16.6711 109.765 17.5449V26.7612C109.765 27.9168 109.413 28.875 108.708 29.636C108.004 30.397 106.989 30.7775 105.665 30.7775Z" fill="white"/>
  <path d="M130.944 30.9043C128.746 30.9043 126.801 30.4534 125.11 29.5515C123.419 28.6214 122.094 27.3108 121.136 25.6197C120.178 23.9287 119.699 21.9416 119.699 19.6587C119.699 17.3758 120.178 15.3887 121.136 13.6977C122.094 12.0066 123.419 10.696 125.11 9.76594C126.829 8.83585 128.802 8.3708 131.029 8.3708C132.776 8.3708 134.312 8.554 135.637 8.9204C136.99 9.2868 138.047 9.8364 138.808 10.5692C139.597 11.302 139.992 12.218 139.992 13.3172C139.992 14.6419 139.653 15.6847 138.977 16.4457C138.301 17.1785 137.328 17.5449 136.06 17.5449C135.214 17.5449 134.369 17.418 133.523 17.1644C132.706 16.9107 131.649 16.7839 130.353 16.7839C129.282 16.7839 128.38 16.953 127.647 17.2912C126.914 17.6294 126.548 18.2495 126.548 19.1514C126.548 20.0815 126.914 20.7579 127.647 21.1807C128.38 21.5753 129.282 21.7725 130.353 21.7725C131.226 21.7725 131.959 21.688 132.551 21.5189C133.143 21.3498 133.706 21.1807 134.242 21.0116C134.777 20.8425 135.383 20.7579 136.06 20.7579C137.497 20.7579 138.554 21.1807 139.231 22.0262C139.935 22.8436 140.288 23.9005 140.288 25.197C140.288 26.2962 139.879 27.2826 139.062 28.1563C138.244 29.0019 137.131 29.6783 135.722 30.1856C134.312 30.6648 132.72 30.9043 130.944 30.9043Z" fill="white"/>
  <path d="M146.959 30.7775C144.874 30.7775 143.239 30.2138 142.055 29.0864C140.9 27.959 140.322 26.3807 140.322 24.3514C140.322 22.3221 140.998 20.8565 142.351 19.9546C143.704 19.0246 145.437 18.5595 147.551 18.5595C148.791 18.5595 149.919 18.6441 150.933 18.8132C151.948 18.9823 152.864 19.2218 153.681 19.5319H153.808V18.8977C153.808 18.2495 153.569 17.7422 153.09 17.3758C152.61 16.9812 152.004 16.798 151.272 16.8262C150.567 16.8262 149.961 16.8684 149.454 16.953C148.975 17.0375 148.369 17.1785 147.636 17.3758C146.283 17.714 145.113 17.6858 144.127 17.2912C143.14 16.8966 142.464 16.1215 142.098 14.966C141.759 13.754 141.83 12.7394 142.309 11.9221C142.816 11.1047 143.577 10.4705 144.592 10.0196C145.466 9.59683 146.438 9.24452 147.509 8.96268C148.608 8.68083 149.792 8.53991 151.06 8.53991C154.752 8.53991 157.458 9.44181 159.177 11.2456C160.925 13.0212 161.799 16.0088 161.799 20.2083V26.7612C161.799 27.9168 161.446 28.875 160.742 29.636C160.037 30.397 159.065 30.7775 157.824 30.7775C156.472 30.7775 155.457 30.397 154.781 29.636C154.132 28.875 153.808 27.945 153.808 26.8458V25.8734H152.963C152.963 26.6062 152.822 27.3531 152.54 28.1141C152.286 28.875 151.737 29.5092 150.891 30.0165C150.074 30.5238 148.763 30.7775 146.959 30.7775ZM147.382 21.5189C147.382 21.998 147.551 22.3362 147.889 22.5335C148.256 22.7308 149.031 22.8295 150.215 22.8295C151.286 22.8295 152.033 22.7308 152.455 22.5335C152.878 22.3362 153.09 21.998 153.09 21.5189C153.09 21.0679 152.878 20.7579 152.455 20.5888C152.033 20.3915 151.286 20.2929 150.215 20.2929C149.031 20.2929 148.256 20.3915 147.889 20.5888C147.551 20.7579 147.382 21.0679 147.382 21.5189Z" fill="white"/>
</svg>